<?xml version="1.0" encoding="UTF-8"?>
<svg id="Layer_1" data-name="Layer 1" xmlns="http://www.w3.org/2000/svg" viewBox="0 0 512.72 762.47">
  <defs>
    <style>
      .cls-1 {
        fill: #ecc45d;
      }

      .cls-2 {
        fill: #e6a530;
      }

      .cls-3 {
        fill: #e5e8eb;
      }

      .cls-4 {
        fill: #bf8f36;
      }

      .cls-5 {
        fill: #cb94a1;
      }

      .cls-6 {
        fill: #2a2420;
      }

      .cls-7 {
        fill: #79623c;
      }

      .cls-8 {
        fill: #4e423b;
      }
    </style>
  </defs>
  <g>
    <path class="cls-6" d="m127.87,240.71c2.16,2.99,5.24,5.19,7.19,8.35-3.18-2.11-5.61-4.87-7.19-8.35Z"/>
    <path class="cls-6" d="m137.42,714.14c-1.91-2.3-1.89-3.46.13-6.37-.41,2.12-.42,4.24-.13,6.37Z"/>
    <path class="cls-6" d="m97.82,197.97c-.98-2.33-1.96-4.66-2.93-6.99,1.38,2.17,3.04,4.21,2.93,6.99Z"/>
    <path class="cls-6" d="m466.17,222.22c-1.48,1.6-3.12,2.9-5.4,3.1,1.76-1.11,3.26-2.65,5.4-3.1Z"/>
    <path class="cls-6" d="m37.33,683.2c1.3,1.84,2.07,3.91,2.57,6.08-1.84-1.62-1.82-4.01-2.57-6.08Z"/>
    <path class="cls-6" d="m347.97,229.38c1.57-1.23,2.37-3.51,4.82-3.55-1.74,1.01-2.66,3.12-4.82,3.55Z"/>
    <path class="cls-6" d="m406.41,367.58c1.35-1.97,3.24-3.17,5.49-3.83-1.83,1.28-3.66,2.55-5.49,3.83Z"/>
    <path class="cls-6" d="m114.37,219.36c1.15,1.71,2.75,3.17,2.92,5.39-1.73-1.34-2.3-3.43-3.36-5.21-.01-.02.09-.14.16-.17.08-.03.18-.02.28-.02Z"/>
    <path class="cls-6" d="m.91,135.39c-.77,4.04-.19,8.14-.6,12.19-.23-4.04-.34-8.06.2-12.07.01-.08.08-.19.14-.2.08-.01.17.05.26.09Z"/>
    <path class="cls-6" d="m136.41,14.82c.12,1.94-1.06,3.34-1.99,4.84-.17-1.96,1.26-3.26,1.99-4.84Z"/>
    <path class="cls-6" d="m429.28,233.71c-1.71.36-3.05,1.78-4.9,1.72,1.37-1.33,2.96-2.02,4.9-1.72Z"/>
    <path class="cls-6" d="m404.27,684.57c1.57-.17,2.7.86,3.99,1.45-1.63.32-2.72-.79-3.99-1.45Z"/>
    <path class="cls-6" d="m149.87,12.59c-.48-1.4-.96-2.8-1.44-4.19,1.45,1.07,1.52,2.6,1.44,4.19Z"/>
    <path class="cls-6" d="m122.27,232.53c1.29.77,2.22,1.75,1.9,3.41-.49-1.22-1.92-1.91-1.9-3.41Z"/>
    <path class="cls-6" d="m41.54,712.3c.07,1.32-.25,2.56-.74,3.75-.75-1.45.1-2.58.74-3.75Z"/>
    <path class="cls-6" d="m170.01,2.33c-.4-.96-1.35-1.23-2.15-1.67,1.14-.09,2.1.12,2.48,1.38.02.07-.02.2-.08.25-.05.05-.16.03-.25.04Z"/>
    <path class="cls-2" d="m311.57,635.69c.41-.95.95-1.58,2.06-.92-.39.99-1.28.84-2.06.92Z"/>
    <path class="cls-6" d="m.27,150.31c1.69,1.19-.24,2.41.04,3.6-.32-1.2-.29-2.4-.04-3.6Z"/>
    <path class="cls-6" d="m467.47,708.68c.75.39,1.49.78,2.23,1.16-1.01.49-1.4-.65-2.16-.81-.08-.02-.15-.11-.23-.17.05-.06.11-.13.16-.19Z"/>
    <path class="cls-2" d="m25.36,572.32c.24.94-.04,1.72-.72,2.37-.27-.95.09-1.7.72-2.37Z"/>
    <path class="cls-6" d="m27.02,85.41c-.56-.46-.79-1.07-.83-1.77.85.32.97.99.83,1.77Z"/>
    <path class="cls-6" d="m134.31,21.58c.16.72.37,1.45-.5,1.88.17-.63.34-1.26.5-1.88Z"/>
    <path class="cls-6" d="m29.7,90.78c.11.64-.29.9-.8.83-.52-.07-.78-.47-.58-1.03.53-.38.98-.31,1.38.2Z"/>
    <path class="cls-2" d="m47.28,479.31c.15.65-.07,1.13-.66,1.44-.51-.82-.01-1.17.66-1.44Z"/>
    <path class="cls-6" d="m135.82,249.62c.45-.04.95-.17.87.58-.59.26-.98.21-.87-.58Z"/>
    <path class="cls-6" d="m27.47,88.47c-.27-.24-.3-.51-.06-.79.37.24.4.5.06.79Z"/>
    <path class="cls-2" d="m468.01,221.9s-.09,0-.08,0c0-.16,0-.32,0-.47.03.16.05.32.08.47Z"/>
    <path class="cls-2" d="m38.54,739.07l.21.11s-.05.24-.05.23c-.11-.02-.22-.05-.34-.07.06-.09.12-.19.18-.28Z"/>
    <path class="cls-2" d="m.39,161.19c.04.11.08.21.1.32,0,.03-.08.07-.12.1-.05-.11-.11-.22-.15-.33,0,0,.11-.05.17-.08Z"/>
    <path class="cls-2" d="m1.39,131.86c.04.14.09.29.11.43,0,.03-.1.08-.16.11-.04-.15-.08-.28-.1-.43,0-.03.1-.08.15-.12Z"/>
    <path class="cls-2" d="m390.82,205.74c-.04-.1-.07-.19-.1-.29,0,0,.07-.04.11-.05,0,0,.09.19.09.19l-.11.15Z"/>
    <path class="cls-2" d="m39.37,740.03s0,.01,0,.01c0,0,0-.01,0-.01Z"/>
    <path class="cls-2" d="m129.95,162.53s-.04.03-.04.03c0,0,.04-.03.04-.03Z"/>
    <polygon class="cls-2" points=".5 171.17 .5 171.17 .37 171.16 .5 171.17"/>
    <polygon class="cls-2" points="120.67 230.84 120.77 230.76 120.69 230.86 120.67 230.84"/>
    <path class="cls-2" d="m390.69,198.74s.03-.02.03-.02c0,0-.03.02-.03.02Z"/>
    <path class="cls-2" d="m164.58,304.5c2.64,1.19,4.52,3.4,6.1,5.58,2.89,3.99,5.59,8.17,7.17,12.94.4,1.21.97,2.42,2.59,2.12,1.68-.3,2.11-1.63,1.93-3.04-.59-4.55-2.76-8.4-5.45-12.03-.87-1.17-2.9-2.25-2.41-3.48.58-1.45,2.78-.5,4.24-.84.55-.13,1.26.11,1.69-.16,3.49-2.13,5.24.24,6.89,2.66,1.61,2.37,4.15,3.66,6.45,4.91,5.12,2.8,11.1,4.3,16.51,2.39,3.77-1.33,5.01.59,7.48,1.88,3.53,1.85,7.3,3.35,11.19,4.55,4.08,1.26,8,2.16,12.26,1.17,5.29-1.22,10.07-3.43,13.95-7.25,2.09-2.06,4.36-3,7.33-3.24,5-.42,10.14-1.24,13.94-4.87,2.97-2.85,5.89-6.06,5.74-10.7-.11-3.14,2.43-4.01,4.44-4.22,3.42-.35,6.2-2.13,8.84-3.69,4.39-2.61,9.06-2.67,13.75-2.96,12.93-.82,25.87-1.83,38.6-4.18,6.6-1.22,12.88-3.76,18.72-7.58,9.25-6.07,17.87-13.09,27.53-18.53,7.81-4.39,15.04-9.82,23.27-13.4,3.21-1.4,6.77-2.25,10.23-3.19,4.71-1.29,9.45-2.23,14.22-2.97,6.24-.97,12.38-2.52,18.14-4.86,4.65-1.89,9.68-3.2,13.73-6.64,2.67-2.26,6.27-3.23,9.59-4.16,4.21-1.18,8.19-3.76,12.89-2.86,1.21.23,2.46.34,3.63.71,2.78.87,3.34,2.54,2,5.23-1.39,2.79-3.63,4.96-5.77,7.02-4.82,4.65-8.79,9.77-11.81,15.77-2.13,4.23-2.32,5.17.8,7.07.24.15.49.53.66.5,5.13-1.1,7.53,2.91,10.09,5.88,2.96,3.43,6.33,6.49,9.14,10.06,1.09,1.38,2.06,2.69,1.19,4.35-.87,1.66-2.32,2.41-4.4,2.59-5.44.47-10.56-1.37-15.86-1.82-6.4-.55-10.05,2.85-12.98,7.76-2.84,4.74-4.7,9.95-7.02,14.94-.26.57-.47,1.06-1.21.83-.36-.11-.73-.3-.92.23-2.93,8.16-7.81,15.9-13.71,21.01-1.37,1.19-1.28,2.85-2.37,4.09-4.47,5.06-9.36,9.67-14.33,14.22-2.54,2.33-5.79,4.03-7.95,6.53-7.01,8.14-16.04,13.81-24.28,20.4-3.48,2.78-7.27,5.67-11.75,7.2-1.33.46-2,.63-2.8-.59-3.33-5.08-7.36-9.65-10.7-14.75-2.11-3.23-5.1-5.87-7.58-8.87-5.67-6.88-11.32-13.79-16.79-20.82-2.56-3.29-5.59-5.83-8.55-8.57-.64-.6-1.41-1.29-2.5-1.21-.96.07-1.99-.05-2.54.94-.5.89.03,1.7.52,2.38,1.53,2.14,3.86,3.46,5.62,5.44,4.3,4.83,8.15,10.01,12.26,14.98,3.98,4.79,7.48,9.95,11.72,14.55,2.36,2.56,4.4,5.45,6.35,8.34,4.61,6.85,9.96,13.17,13.89,20.51,1.85,3.45,5.15,6.13,6.97,9.59,3.33,6.3,8.28,12.09,9.16,19.26.88,7.15.29,14.48-1.65,21.59-1.01,3.72-1.42,7.61-2.4,11.34-1.61,6.15-4.5,9.78-10.61,10.67-2.28.33-4.62-.73-6.57-1.56-4.53-1.93-8.8-4.3-12.5-7.99-6.8-6.77-14.06-13.18-24.74-13.03-6.62.1-12.12,2.67-16.53,7.25-5.66,5.88-11.98,10.98-18.36,15.96-5.29,4.12-11.48,6.96-18.39,7.07-6.02.1-11.46-1.58-16.2-5.74-5.01-4.41-8.59-10.22-14.21-14.04-1.85-1.26-3.91-2.05-5.84-2.71-9.06-3.09-18.08-2.45-27.12.77-7.2,2.56-12.47,7.46-18.02,12.37-6.96,6.15-12.89,13.42-20.7,18.67-7.71,5.18-15.28,4.66-23.17.71-7.39-3.7-12.54-10.1-18.85-15.07-7.59-5.98-14.71-13.5-25.64-13.12-4.69.16-8.91,1.82-12.92,4.26-9.27,5.63-15.19,14.49-21.98,22.5-3.06,3.61-5.78,7.5-9.89,10.08-3.93,2.47-8.73,2.29-12.51-.41-4.03-2.88-7.21-6.67-10.89-9.92-1.25-1.11-1-2.61-.99-4.02.04-6.21,1.1-12.34,1.54-18.51.66-9.11,1.2-18.24,1.8-27.36.45-6.96.57-13.93.31-20.9-.13-3.48-.5-6.94-.76-10.41-.07-.91-.39-1.84.38-3.02,3.34,5.43,6.58,10.69,9.83,15.94.4.65.8,1.33,1.35,1.83.88.82,2.11,1.41,3.11.61.96-.77,1.73-1.93.96-3.42-2.08-4.03-4.62-7.78-6.89-11.7-2.23-3.85-4.77-7.61-6.49-11.66-2.72-6.38-6.22-12.34-9.4-18.46-2.61-5.03-5.15-10.14-7.18-15.35-3.06-7.87-6.67-15.49-9.98-23.22-2.43-5.68-4.92-11.4-7.17-17.12-2.63-6.67-5.6-13.37-6.89-20.5-.73-4.06-3.2-7.45-3.81-11.48-.68-4.48-2.54-8.7-2.85-13.27-.11-1.58-.33-3.19-1.17-4.67-.65-1.14-1.03-2.45-.95-3.82.43-7.74-1.45-15.28-2.05-22.93-.88-11.13-1.69-22.25-1.72-33.42-.03-15.1-.08-30.2.13-45.3.12-8.67.89-17.3,2.01-25.93,1.04-8.04,2.63-15.95,4.34-23.83.91-4.19,2.7-8.15,5.63-11.45.43-.49.9-1.02,1.67-.99.13,1.59-1.41,2.12-2.07,3.2-.68,1.1-1.23,2.5-.12,3.33,1.21.9,2.42-.17,3.02-1.26.81-1.46,1.75-2.94,1.6-4.75,2.15,1.24,1.38,3.53,1.68,5.3.79,4.7-.18,9.6.98,14.25.86,3.45.3,7.23,2.42,10.36.92,1.36,1.83,2.89,3.83,2.13,2-.76,1.36-2.47,1.11-3.93-.61-3.53-2.04-6.81-2.33-10.5-.42-5.51,1.87-9.73,4.95-13.74,2.88-3.75,5.8-7.5,9.06-10.91,2.6-2.73,5.57-5.2,8.69-7.31,1.95-1.32,4.69-1.01,6.47.54,1.71,1.5.92,3.77,0,5.55-3.02,5.76-5.12,11.96-6.62,18.16-1.82,7.55-.28,14.94,5.1,21.07.86.98,1.83,1.37,3.01.61,3.81-2.48,7.64-4.93,11.41-7.47,3.09-2.09,6.29-3.82,9.99-4.69,2.28-.53,4.47-.57,5.59,1.46,1.02,1.86.6,4.11-.25,6.24-2.73,6.88-6.46,13.43-7.88,20.76-1.63,8.39-.29,16.66,1.74,24.89,1.62,6.56,3.54,13.05,5.54,19.46,1.38,4.41,2.29,9.15,4.82,13.24.87,1.4.94,3.27,1.52,4.88,2.74,7.71,6.19,15.13,9.77,22.47,2.37,4.86,5.39,9.39,7.95,14.15,4.84,8.98,11.2,16.93,16.93,25.32,3.9,5.71,8.14,11.16,12.14,16.77,4.49,6.3,9.59,12.13,13.9,18.52,2.57,3.82,4.33,8.18,6.6,12.23,2.7,4.82,4.69,9.89,6.12,15.21.31,1.16,1.11,1.85,2.63,1.27,2.2-.83,3.05-2.33,2.47-4.45-.46-1.7-1.41-3.27-2.04-4.94-1.26-3.38-2.54-6.74-4.4-9.86-.3-.5-.12-1.29-.16-1.95l.02-.02Zm302.5-32.3c3.52.23,6.34-1.52,9.18-3.22,2.71-1.63,4.84-3.03,5.34-7.06.57-4.64-1.75-7.45-4.18-9.93-3.22-3.28-7.77-5.07-12.23-6.16-6.43-1.57-12.99-2.63-19.67-2.65-2.1,0-2.94.82-2.93,2.88.02,2.32,1.36,2.81,3.35,2.89,9.34.38,18.55,1.19,26.57,6.89,2.76,1.96,3.87,4.76,1.62,6.71-2.4,2.09-5.13,3.95-8.37,4.57-5.68,1.1-11.38,2.08-17.08,3.08-2.23.39-3.93,1.26-3.37,3.91.43,2.04,2.94,2.79,5.48,1.64.91-.41,1.78-.65,2.75-.57.59.05,1.19.2,1.4.81.3.83-.43.89-.94,1.07-1.53.53-1.96,1.76-1.87,3.18.11,1.7,1.73,1.58,2.8,1.94,1.23.41,2.4.05,3.4-.93,1.92-1.89,3.49-4.09,4.6-6.46.94-2,2.11-2.78,4.15-2.59Zm-339.25,92.78c.89-5.72-.63-11.52-1.77-17.28-.68-3.48-2.37-6.84-5.19-9.36-1.06-.94-2.21-1.19-3.36-.27-1.09.87-.99,2.1-.33,3.11,1.25,1.92,1.95,4,2.67,6.17,2.79,8.45,3.59,16.97,2.36,25.82-.6,4.29-1.62,8.62-1.11,13.04.14,1.2.28,2.27,1.81,2.47,1.58.21,2.38-.69,2.66-1.97.56-2.59,1.4-5.23,1.57-7.78.31-4.55,1.42-9.07.69-13.95ZM47.14,135.64c-.58-6.42-2.13-12.47-6.75-17.35-1.06-1.12-2.33-1.41-3.59-.5-1.27.92-1.24,2.31-.72,3.63.28.7.74,1.35,1.22,1.93,4.73,5.8,5.22,12.45,3.93,19.47-.25,1.37-.35,2.86,1.33,3.32,1.61.45,2.46-.67,2.88-2.08.81-2.74,1.61-5.49,1.69-8.42Z"/>
    <path class="cls-4" d="m204.09,313.39c7.12,6,14.25,12,21.37,17.99,3.09,2.6,6.17,5.2,9.26,7.8,10.52,8.86,21.26,17.85,33.92,23.23-1.46-10.15-6.3-19.78-13.59-27,7.01-.94,13.8-3.44,19.74-7.28-1.28-2.23-3.51-3.73-5.26-5.62-1.75-1.89.47-3.58,1.57-5.91.67-1.41,7.04-5.67,8.35-6.52,8.45-5.47,13.06-16.28,19.83-23.74l-95.2,27.05Z"/>
    <path class="cls-4" d="m439.09,268.94c18.21,22.77,4.62,52-18.87,83.24,25.48-20.97,46.1-45.58,60.98-74.53l31.48-.3-24.71-27.28-20.81-22.26-28.07,41.13Z"/>
    <path class="cls-1" d="m370.7,270.75c7.81-4.39,38.39-24.62,46.62-28.2,3.21-1.4,6.77-2.25,10.23-3.19,4.71-1.29,9.45-2.23,14.22-2.97,6.24-.97,12.38-2.52,18.14-4.86,4.65-1.89,9.68-3.2,13.73-6.64,2.67-2.26,6.27-3.23,9.59-4.16,4.21-1.18,8.19-3.76,12.89-2.86,1.21.23,2.46.34,3.63.71,2.78.87,3.34,2.54,2,5.23-1.39,2.79-3.63,4.96-5.77,7.02-4.82,4.65-8.79,9.77-11.81,15.77-2.13,4.23-2.32,5.17.8,7.07-35.72,40-66.48-1.9-114.27,17.08Zm96.38,1.44c3.52.23,6.34-1.52,9.18-3.22,2.71-1.63,4.84-3.03,5.34-7.06.57-4.64-1.75-7.45-4.18-9.93-3.22-3.28-7.77-5.07-12.23-6.16-6.43-1.57-12.99-2.63-19.67-2.65-2.1,0-2.94.82-2.93,2.88.02,2.32,1.36,2.81,3.35,2.89,9.34.38,18.55,1.19,26.57,6.89,2.76,1.96,3.87,4.76,1.62,6.71-2.4,2.09-5.13,3.95-8.37,4.57-5.68,1.1-11.38,2.08-17.08,3.08-2.23.39-3.93,1.26-3.37,3.91.43,2.04,2.94,2.79,5.48,1.64.91-.41,1.78-.65,2.75-.57.59.05,1.19.2,1.4.81.3.83-.43.89-.94,1.07-1.53.53-1.96,1.76-1.87,3.18.11,1.7,1.73,1.58,2.8,1.94,1.23.41,2.4.05,3.4-.93,1.92-1.89,3.49-4.09,4.6-6.46.94-2,2.11-2.78,4.15-2.59Zm-339.25,92.78c.89-5.72-.63-11.52-1.77-17.28-.68-3.48-2.37-6.84-5.19-9.36-1.06-.94-2.21-1.19-3.36-.27-1.09.87-.99,2.1-.33,3.11,1.25,1.92,1.95,4,2.67,6.17,2.79,8.45,3.59,16.97,2.36,25.82-.6,4.29-1.62,8.62-1.11,13.04.14,1.2.28,2.27,1.81,2.47,1.58.21,2.38-.69,2.66-1.97.56-2.59,1.4-5.23,1.57-7.78.31-4.55,1.42-9.07.69-13.95ZM47.14,135.64c-.58-6.42-2.13-12.47-6.75-17.35-1.06-1.12-2.33-1.41-3.59-.5-1.27.92-1.24,2.31-.72,3.63.28.7.74,1.35,1.22,1.93,4.73,5.8,5.22,12.45,3.93,19.47-.25,1.37-.35,2.86,1.33,3.32,1.61.45,2.46-.67,2.88-2.08.81-2.74,1.61-5.49,1.69-8.42Z"/>
    <path class="cls-1" d="m21.85,89.42c2.15,1.24,1.38,3.53,1.68,5.3.79,4.7-.18,9.6.98,14.25.86,3.45.3,7.23,2.42,10.36.41.6-.04,23.47-.67,48.82-1,40.31,8.83,80.13,28.43,115.37,21.59,38.83,48.02,98.51,55.24,167.49-9.27,5.63-15.19,14.49-21.98,22.5-3.05,3.6-5.77,7.48-9.86,10.07-3.84,2.43-8.83,2.25-12.53-.39-4.03-2.88-7.21-6.67-10.89-9.93-1.25-1.11-1-2.61-.99-4.02.04-6.21,1.1-12.34,1.54-18.51.66-9.11,1.2-18.24,1.8-27.36.45-6.96.57-13.93.31-20.9-.13-3.48-.5-6.94-.76-10.41-.07-.91-.39-1.84.38-3.02,3.34,5.43,6.58,10.69,9.83,15.94.4.65.8,1.33,1.35,1.83.88.82,2.11,1.41,3.11.61.96-.77,1.73-1.93.96-3.42-2.08-4.03-4.62-7.78-6.89-11.7-2.23-3.85-4.77-7.61-6.49-11.66-2.72-6.38-6.22-12.34-9.4-18.46-2.61-5.03-5.15-10.14-7.18-15.35-3.06-7.87-6.67-15.49-9.98-23.22-2.43-5.68-4.92-11.4-7.17-17.12-2.63-6.67-5.6-13.37-6.89-20.5-.73-4.06-3.2-7.45-3.81-11.48-.68-4.48-2.54-8.7-2.85-13.27-.11-1.58-.33-3.19-1.17-4.67-.65-1.14-1.03-2.45-.95-3.82.43-7.74-1.45-15.28-2.05-22.93-.88-11.13-1.69-22.25-1.72-33.42-.03-15.1-.08-30.2.13-45.3.12-8.67.89-17.3,2.01-25.93,1.04-8.04,2.63-15.95,4.34-23.83.91-4.19,2.7-8.15,5.63-11.45.43-.49.9-1.02,1.67-.99.83-2.28,1.64-2.25,2.43.52Zm445.23,182.77c3.52.23,6.34-1.52,9.18-3.22,2.71-1.63,4.84-3.03,5.34-7.06.57-4.64-1.75-7.45-4.18-9.93-3.22-3.28-7.77-5.07-12.23-6.16-6.43-1.57-12.99-2.63-19.67-2.65-2.1,0-2.94.82-2.93,2.88.02,2.32,1.36,2.81,3.35,2.89,9.34.38,18.55,1.19,26.57,6.89,2.76,1.96,3.87,4.76,1.62,6.71-2.4,2.09-5.13,3.95-8.37,4.57-5.68,1.1-11.38,2.08-17.08,3.08-2.23.39-3.93,1.26-3.37,3.91.43,2.04,2.94,2.79,5.48,1.64.91-.41,1.78-.65,2.75-.57.59.05,1.19.2,1.4.81.3.83-.43.89-.94,1.07-1.53.53-1.96,1.76-1.87,3.18.11,1.7,1.73,1.58,2.8,1.94,1.23.41,2.4.05,3.4-.93,1.92-1.89,3.49-4.09,4.6-6.46.94-2,2.11-2.78,4.15-2.59Zm-339.25,92.78c.89-5.72-.63-11.52-1.77-17.28-.68-3.48-2.37-6.84-5.19-9.36-1.06-.94-2.21-1.19-3.36-.27-1.09.87-.99,2.1-.33,3.11,1.25,1.92,1.95,4,2.67,6.17,2.79,8.45,3.59,16.97,2.36,25.82-.6,4.29-1.62,8.62-1.11,13.04.14,1.2.28,2.27,1.81,2.47,1.58.21,2.38-.69,2.66-1.97.56-2.59,1.4-5.23,1.57-7.78.31-4.55,1.42-9.07.69-13.95ZM47.14,135.64c-.58-6.42-2.13-12.47-6.75-17.35-1.06-1.12-2.33-1.41-3.59-.5-1.27.92-1.24,2.31-.72,3.63.28.7.74,1.35,1.22,1.93,4.73,5.8,5.22,12.45,3.93,19.47-.25,1.37-.35,2.86,1.33,3.32,1.61.45,2.46-.67,2.88-2.08.81-2.74,1.61-5.49,1.69-8.42Z"/>
    <path class="cls-4" d="m9.38,108.13c34.37,51.98,28.52,106.28.82,155.2C-1.56,212.76.81,158.34,9.38,108.13Z"/>
    <path class="cls-2" d="m143.32,9.78c2.45,6.23,3.51,12.06,5.17,17.71.21.73.22,1.51.77,2.11.94,1.01,1.72,2.46,3.39,1.96,1.56-.46,1.38-1.96,1.65-3.26,1.52-7.3,3.85-14.22,9.75-19.32.37-.32.69-.69,1.22-.56.73.18.71.84.73,1.39.08,1.91.23,3.83.12,5.73-.34,5.94,1.3,11.46,3.22,16.98.94,2.72,1.02,5.67,2.48,8.34.89,1.63.04,3.45-1.92,4.51-1.46.79-1.75,2.3-.91,3.73.73,1.25,2.09,1.61,3.23.78,5.51-4.02,11.78-3.03,17.89-2.77,6.38.27,12.62,1.41,18.61,3.84,7.73,3.13,14.99,6.99,20.56,13.36,1.27,1.45,2.82,2.77,3.53,4.77.43,1.22.43,1.84-.9,1.94-1.88.13-3.02,1.06-2.59,2.92.46,1.95,2.17,2.18,3.91,1.91,4.21-.67,8.4-1.6,12.64-1.98,2.96-.27,6.02-.16,8.86,1.22,1.09.53,1.91,1.23,2.54,2.19.85,1.3.6,2.17-1.06,2.33-3.33.32-6.28,2.05-9.56,2.61-1.55.27-2.83,1.18-2.82,3.09,0,2.07.68,3.38,3.07,2.77,1.2-.31,2.48-.48,3.55-1.04,4.74-2.49,9.83-2.08,14.77-1.5,2.67.31,5.47,1.61,6.78,4.58.67,1.53.58,2.64-1.28,2.96-3.92.69-7,3.33-10.67,4.59-1.1.38-1.48,1.48-1.53,2.57-.06,1.2.97,1.58,1.85,1.89,1.9.68,3.67.37,5.48-.59,4.52-2.4,9.37-3.56,14.5-3.65,1.54-.03,2.86.76,3.99,1.38,4.12,2.25,9,3.9,9.73,9.7.22,1.76-.05,2.42-1.99,2.34-13.34-.57-24.83,3.69-34.17,13.39-1.14,1.18-2.32,1.65-4.07.91-4.23-1.77-8.68-2.48-13.27-2.99-7.56-.84-14.83.03-21.9,2.45-12.01,4.11-20.63,11.68-25.04,24.04-1.99,5.59-1.57,11.06-1.61,16.64-.02,2.33,1.09,4.49,2.13,6.44,1.25,2.34,1.62,5.07,3.45,7.14.95,1.08.19,1.76-.99,1.92-5.83.78-11.5,2.57-17.44,2.74-3.92.12-6.93-2.42-10.53-3.27-1.92-.46-3.75-1.3-5.78-1.46-7.3-.57-14.52-2.11-21.91-1.49-2.74.23-4.93-.24-5.25-3.94-.28-3.2-1.08-6.42-1.04-9.64.08-6.69-.58-13.34-1.22-19.95-.93-9.54-3.98-18.69-6.5-27.93-2.1-7.72-1.99-15.36.73-23.06,1.66-4.72,3.81-9.18,5.74-13.76.5-1.19,1.32-2.07,2.01-3.05,1.47-2.1.58-3.44-1.21-4.44-1.76-.98-2.95-.67-3.54,1.62-.33,1.27-1,2.56-2.91.61-2.19-2.23-5.24-3.59-7.83-5.44-3.31-2.36-7.39-3.18-10.71-5.49-.96-.67-2.03-.41-3.03-.67-.88-.23-1.68-.73-1.78-1.65-.12-1.05.98-1.08,1.62-1.28,4.92-1.5,10-2.28,15.1-2.87,3.28-.38,4.59-2.81,2.95-5.76-2.38-4.29-6.31-7.02-9.98-9.99-1.53-1.24-2.98-2.65-4.98-3.23-.86-.25-1.47-.97-1.33-1.97.17-1.24,1.23-.87,2.02-1.03,6.03-1.22,11.35,1.37,16.82,3.14,1.56.5,2.43,2.04,4,2.66,4.06,1.59,5.53.56,6.37-3.6,1.25-6.17.62-12.56,2.68-18.64.94-2.77,2.05-5.38,3.6-8.59Zm12.73,126.68c-.4-4.92-.06-9.76-1.32-14.79-1.18-4.73-2.84-8.94-5.13-13.09-1.02-1.84-2.61-1.6-3.92-.96-1.17.57-1.2,1.84-.65,3.23,1.78,4.5,3.83,8.9,4.74,13.73.77,4.07.67,8.15.62,12.24-.08,5.71-.39,11.45,1.85,16.9.63,1.55,1.32,3.07,3.51,2.41,2.1-.63,2.43-2.36,1.71-3.88-2.43-5.13-1.2-10.51-1.4-15.8Zm65.67-39.6c1.5.25,2.54-.81,2.59-2.56.04-1.68-.48-3.25-2.75-3.14-.76.04-1.55.04-2.28-.14-8.28-2.07-15.17,2.17-21.87,5.61-3.74,1.93-7.05,5.44-9.78,9.08-1.32,1.76-1.84,3.27.05,4.97,2.15,1.94,3.55.02,4.41-1.21,1.84-2.65,4.25-4.59,6.74-6.49,6.47-4.91,13.46-8.04,21.85-6.19.18.04.38.03,1.02.07Zm-10.09-13.07c.48,0,.97-.07,1.43.01,1.75.33,3.43.32,3.55-1.97.14-2.49-1.63-2.91-3.65-2.88-2.58.04-5.17-.15-7.72.1-8.29.83-15.69,3.83-21.81,9.59-1.5,1.41-2.44,3.43-3.99,4.75-2.03,1.71-2.07,3.71-.55,5.17,1.71,1.64,3.11-.51,4.22-1.55,1.44-1.35,2.31-3.33,3.8-4.6,7.1-6.06,15.6-8.3,24.73-8.62Zm15.11,23.12c-5.61-.73-10.37,1.84-15.33,3.74-4.77,1.82-8.31,5.3-12.16,8.4-1.5,1.22-1.59,2.59-.4,3.94,1.39,1.57,3.01,1.12,4.26-.16,1.35-1.37,2.91-2.43,4.37-3.64,7.04-5.82,15.04-8.06,24.06-6.75,1.71.25,3.18-.24,3.57-2.01.39-1.73-.88-2.72-2.4-2.98-1.97-.34-3.99-.38-5.98-.54Zm-80.96,47.24c1.09.13,2.28-.35,2.61-1.92.31-1.47-.23-2.68-1.77-3.13-1.85-.54-2.2-1.92-1.42-3.26.89-1.52,1.05-2.75-.52-3.58-1.7-.91-3.46-.91-4.82.85-1.34,1.73-2.26,3.57-1.25,5.76,1.33,2.9,3.31,5.03,7.17,5.28Zm-8.86-30.42c1.61.12,2.9-.05,3.76-1.03,1.02-1.17,2.09-2.75.1-3.81-2.14-1.14-1.54-2.34-.51-3.63.91-1.14.75-2.14-.15-3.04-.95-.95-2.19-1.22-3.43-.63-3.41,1.63-4.57,8.6-2.04,11.4.8.88,1.69.68,2.28.75Z"/>
    <path class="cls-2" d="m144.16,183.58c4.78,0,9.58-.33,14.32.09,5.04.44,9.97,2.2,14.3,4.58,3.66,2.02,6.97,1.74,10.42.9,2.99-.73,5.93-1.34,9.01-1.37,1.62-.02,3.16-.61,4.69-1.17,2.91-1.07,5.45-.95,8.22,1.15,5.56,4.21,11.77,7.09,18.79,8.46,7.14,1.39,14.1,1.78,21.19.09,2.75-.66,5.4-.51,7.99,1.04,1.59.95,3.38,1.79,5.42,1.57.66-.07,1.42.15,1.55.95.13.82-.74.66-1.16.95-1.66,1.16-3.6,1.61-5.45,2.3-5.92,2.19-11.56,5.31-15.01,10.46-3.44,5.14-8.15,5.17-13.02,5.45-6.18.35-11.49,2.73-16.75,5.72-2.54,1.45-5.27,2.52-7.38,4.63-4.7,4.68-8.71,9.71-11.74,15.81-3.59,7.24-3.9,14.58-3.62,22.24.27,7.29,2.33,14.02,5.26,20.7,2.07,4.72,4.35,9.07,8.16,12.47,2.76,2.45,6.28,3.79,9.36,5.79.84.55,2.07,1.08,1.48,2.39-.44.99-1.42,1.46-2.61,1.38-3.89-.25-7.87-.33-11.43-2-5.73-2.7-9.53-7.22-11-13.48-.22-.93-.31-1.8-.96-2.61-.83-1.03-1.6-1.98-3.06-1.46-1.38.49-1.3,1.75-1.32,2.89-.02,1.14,0,2.29.08,3.44.22,3.01-1.06,4.08-3.93,3.24-.27-.08-.55-.24-.82-.23-7.71.26-11.34-5.23-15.26-10.55-1.98-2.69-2.2-5.78-3.03-8.73-1.13-4,.41-7.63,2.05-11.18.28-.6.68-1.16.95-1.76.79-1.77,1.26-3.55-.83-4.76-1.25-.72-4.26.89-4.61,2.76-.54,2.89-2.56,5.2-2.63,8.34-.05,2.25-2.09,1.51-3.16.59-3.21-2.78-4.73-6.56-5.5-10.63-.31-1.67-.36-3.39-.42-5.1-.1-3.14.95-4.09,3.9-2.98,2.48.94,4.98.97,7.51,1.27,2.2.26,2.99-.89,3.25-2.65.32-2.11-1.18-2.63-2.84-2.7-9.48-.38-15.95-5.9-21.85-12.57-6.07-6.85-10.02-15.05-14-23.06-3.26-6.57-6.1-13.53-7.89-20.77-1.01-4.1,1.46-7.3,5.82-8.68,9-2.84,18.18-3.71,27.53-3.21Zm-1.84,7.8c-4.26.45-9.41-.82-14.35,1.75-1.65.86-3.3,1.1-4.41,2.97-1.95,3.29-1.7,6.47-.64,9.89,1.76,5.63,4.34,10.93,6.51,16.39,2.44,6.14,6.67,10.89,11.18,15.47,2.42,2.46,5.63,3.95,8.64,5.29,4.27,1.9,8.8.63,9.06-5.3.04-.95.03-1.91,0-2.86-.26-7.52,2.04-14.4,5.33-21.01,2.41-4.83,4.78-9.68,7.46-14.36,1.96-3.43-.12-5.17-2.85-5.63-1.87-.32-3.91.09-5.68-.45-6.38-1.98-12.92-2.1-20.26-2.15Z"/>
    <path class="cls-3" d="m197.09,153.45c1.18-1.58,1.18-3.58,1.89-5.34,2.11-5.29,6.21-8.76,10.25-12.48,4.49-4.14,9.87-6.18,15.49-7.35,5.99-1.25,12.17-2.1,18.34-.71,1.99.12,3.69,1.58,5.78,1.26,5.68,1.99,11.16,4.41,15.33,8.91,4.72,5.09,8.37,10.84,9.73,17.79.38,1.96,0,3.3-2.46,2.67-4.83-1.24-9.7-1.81-14.55-.3-7.04,2.19-12.93,5.79-15.4,13.34-.98,3-3.96,3.5-6.27,3.59-6.95.29-13.47,3.33-20.51,2.9-2.3-.14-4.47.92-6.7,1.42-3.58.8-5.01.23-6.76-2.77-4.14-7.13-6.32-14.63-4.2-22.92,0,0,.03-.01.03-.01Zm39.25,9.41c-.17-3.99-2.04-5.84-5.77-5.73-3.39.1-4.98,1.99-4.79,5.69.17,3.26,2.28,5.29,5.38,5.19,2.78-.09,5.29-2.58,5.18-5.14Z"/>
    <path class="cls-2" d="m312.07,160.16c-1.37,1.96-2.68,2.81-4.19,3.5-1.8.82-2.87,2.22-2.02,4.29.98,2.38,2.92,2.04,4.5.97,4.69-3.16,9.68-4.54,15.36-3.91,2.46.27,3.99,1.91,5.93,2.93.81.43.95,1.67.61,2.61-.34.95-1.29.55-2.01.61-3.66.29-7.4.24-10.49,2.76-1.57,1.28-2.16,2.78-.92,4.46,1.27,1.73,2.78,1.24,4.17,0,.21-.19.42-.48.67-.53,3.53-.68,6.89-2.58,10.66-1.53.27.08.57.09.83.21,1.37.66,3.6,8.46,2.78,9.74-.59.91-1.52.59-2.34.54-2.87-.17-5.72.03-8.57.39-1.62.2-2.82.87-2.33,2.78.43,1.65,1.34,2.73,3.31,2.13,2.04-.63,4.16-.7,6.24-.37,3.52.55,4.69,2.25,3.56,5.64-1.54,4.6-1.86,9.43-3.08,14.09-.45,1.71-1.19,2.65-2.93,2.17-1.26-.35-2.45-.04-3.67-.04-1.25,0-2.06.52-2.11,1.79-.08,2.01-1.52,2.41-2.97,2.24-2-.24-.98-1.6-.63-2.6.52-1.47-.93-1.67-1.52-2.41-.81-1.02-1.62-.53-2.52-.06-2.58,1.35-5.2,2.66-8.14,3-2.49.29-3.83-.62-4.08-3.44-.3-3.39-1.25-6.72-1.83-10.09-.6-3.47-3.25-5.59-5.59-7.6-2-1.73-3.78-3.86-6.36-4.99-2.39-1.06-3.83-.56-4.11,1.97-.11,1.01-.3,1.53-1.4,1.69-1.71.26-3.43.61-5.04-.13-.54-.25-.1-1.04.29-1.48,3.27-3.65,4.81-8.15,5.18-12.82.25-3.16-.65-6.55-2.15-9.41-1.15-2.19-2.34-4.55-4.54-6.06-.44-.3-.87-.8-.41-1.45.4-.56.94-.49,1.54-.43,7.43.77,14.8.02,22.14-1.01,2.57-.36,5.06-.22,8.16-.17Z"/>
    <path class="cls-3" d="m287.39,116.05c2.21-.32,4.4.07,6.6.2.29.65.6.69.93.03.99.26,1.99.52,2.98.78.12,1.6,1.25.65,1.96.78,1.07-.58,2.01-.06,2.99.34,6.03,2.44,11.47,5.88,15.52,10.95,3.4,4.25,5.23,13.96,2.07,20.51-2.52,5.22-5.53,6.09-10.49,5.76-9.31-.62-18.61.93-27.95.71-2.1-.05-3.11.63-4.04-2.25-1.4-4.34-2.63-8.8-5.14-12.87-2.41-3.91-5.86-6.43-9.15-9.18-3.24-2.71-3.33-3.42-.05-6.26,3.48-3.01,7.32-5.41,11.53-7.08,2.73-1.08,5.77-1.37,8.7-1.93.92-.18,1.92.06,2.76-.51.25.42.51.51.79.03Zm20.8,18.91c-2.93.32-4.39,2.31-4.31,4.9.06,1.74-.15,4.04,2.11,5.14,2.22,1.08,4.43,1.38,6.42-.24,2.06-1.68,2.53-4.18,1.6-6.47-.96-2.36-2.79-4.1-5.8-3.3l-.02-.03Z"/>
    <path class="cls-1" d="m91.64,722.63c5.24.09,10.4.27,15.02,2.45,5.61,2.64,11.42,5.03,16.3,9,2.13,1.74,1.83,4.01-.71,5.16-1.5.67-1.75,2.24-2.82,3.09-3.86,3.06-7.99,5.71-12.24,8.22-3.85,2.27-8.12,3.38-12.23,4.91-2.4.89-4.65.4-6.62-1.88-4.72-5.47-6.9-11.8-7.05-18.85-.09-3.99,1.31-7.7,3.75-10.84,1.75-2.26,4.5-.8,6.61-1.25Z"/>
    <path class="cls-7" d="m88.33,753.57c12.78-6.51,20-16.64,21.64-30.41l20.13,13.93-35.39,22.34-6.38-5.86Z"/>
    <path class="cls-3" d="m253.47,250.93c-6.5,1.62-12.5.96-17.72-3.66-3.64-3.23-4.58-3.32-8.54-.38-1.13.84-2.86.36-3.55,1.86-1.76-.5-3.55.09-5.33-.09-2.66-.28-3.4-1.55-2.31-3.99.18-.41.58-.78.15-1.26,1.63-.25,2.31-2.17,4-2.3,3.45-1.01,6.7-2.71,10.31-3.24,5.76-1.05,11.56-.81,17.31-.18,8.5.94,16.97,2.62,25.44-.08,1.64-.52,2.93.16,4.3.9,4.85,2.59,9.93,3.87,15.42,2.46,1.58.21,3.06.06,4.15-1.32.98-.07,1.95-.14,2.92-.2,1.84-1.21,4.48-1.07,5.75-3.3,3.88-3.78,7.66-.57,11.46.18,1.09.22,2.14.67,3.23.95.79.21,1.94,0,1.97,1.15.02.85-.74,1.48-1.56,1.81-3.63,1.46-6.75,4.26-10.96,4.15-.06-.13-.14-.38-.18-.38-.24.03-.56.08-.28.45-3.26.87-6.52,1.8-9.51-.76-.53-1.02-1.42-1.14-2.37-.8-.29.1-.09.45.21.56-1.01-.22-1.76.19-2.59.79-3.58,2.59-7.27,4.96-11.55,6.35-6.27,2.05-12.11,1.11-17.53-2.28-2.64-1.65-4.81-1.59-7.22.15-.91.65-2.01,1.03-3.03,1.52-1.12-.55-1.97-.42-2.37.91Z"/>
    <path class="cls-1" d="m75.19,757c-9.71-.02-18.54-2.72-25.85-9.25-2.15-1.92-3.72-4.55-5.33-7-.94-1.43-.27-2.71,1.24-3.54,1.58-.87,3.27-1.64,4.64-2.78,7.56-6.29,16.51-9.17,25.95-10.92.67-.12,1.39-.42,1.8.29.45.77.4,1.68,0,2.48-2.33,4.57-2.13,9.27-1.01,14.12,1.01,4.34,2.26,8.5,4.65,12.35,1.69,2.72.61,4.19-2.65,4.25-1.14.02-2.29,0-3.43,0Z"/>
    <path class="cls-1" d="m488.84,699.69c-.23,5.91-3.47,7.66-9.52,5.44-1.09-.4-6.6,1.8-7.78,1.73-6.48-.42-11.96-2.95-17.61-5.48-5.35-2.39-10.21-6.08-15.87-8.02-3.49-1.2.6-2.72,3.32-4.83,2.2-1.71,4.64-3.17,6.78-4.99,4.11-3.49,9.28-5.62,14.88-7.17,3.73-1.03,6.88-1.87,10.65,0,2.29,1.13,3.53,2.9,4.82,4.47,3.31,4.05,6.09,8.43,8.96,12.73,1.29,1.94,1.71,4.11,1.37,6.12Z"/>
    <path class="cls-7" d="m478.98,701.17c-13.8-3.9-22.85-12.44-27.14-25.62l-17.03,17.58,39.05,15.03c5.82,0,8.02-2.06,5.12-6.99Z"/>
    <path class="cls-3" d="m357.31,157.07c-.74,6.21-5.38,13.02-12.35,14.33-1.09.21-2.09.85-3.28.67-.83-.13-1.48-.46-1.61-1.34-.16-1.07.75-.76,1.31-1,1.07-.44,2.41-.54,2.64-2.16.22-1.5-.6-2.02-1.66-2.85-2.57-2.03-5.26-3.88-7.96-5.73-2.13-1.47-4.11-2.75-6.95-1.26-1.74.91-4.12-1.67-3.36-3.52,1.51-3.69,2.67-7.62,6.5-9.85,3.59-2.1,11.83-4.52,16.58-1.53,2.07,1.31,3.99,2.73,5.93,4.2,3.55,2.7,3.64,6.57,4.21,10.04Zm-6.47,3.43c-.29-1.29-.67-2.42-1.97-3.01-4.75-2.14-9.19-4.9-14.05-6.83-1.57-.62-3.08-.86-3.88.56-.86,1.53.56,2.8,1.74,3.45,5.04,2.75,9.65,6.32,15.33,7.87,2.18.6,2.44-.61,2.83-2.04Z"/>
    <path class="cls-3" d="m255.82,188.19c-1.08.43-2.17.85-3.25,1.28,0,0,0,.03,0,.03-2,.99-3.09.1-4.66-1.38-6.2-5.86-4.33-18.4,3.1-22.81,1.37-.81,2.47-2.09,4.17-2.25,1.28.34,1.95-.78,2.91-1.22,3.65-.59,7.29-.95,10.91.13-.08.06-.18.11-.22.18-.03.06-.02.23,0,.24,3.17.85,4.78,2.66,3.78,6.09-.18,2.2-1.1,4-2.5,5.75-1.32,1.65-2.76,2.41-4.28.93-2.41-2.36-5.92-2.73-8.34-5.07-.99-.96-2.49-.79-3.37.74-.95,1.66-.56,2.88,1.05,3.81,3.08,1.78,6.15,3.56,9.22,5.34-.96,1.44-1.96,2.72-3.87,1.3-2.49-1.8-5.02-3.53-7.79-4.89-1.48-.73-3.51-1.33-4.39-.06-1.06,1.53-.13,3.22,1.85,4.04.94.39,1.72,1.14,2.57,1.72-.12.11-.25.21-.34.34-.03.05.02.19.07.24,1.71,1.49,4.23,2.47,3.39,5.52Z"/>
    <path class="cls-3" d="m233.47,192.9c-4.11.8-8.18-1.11-12.3-1.91-3.4-.67-7.15-1.98-9.9-4.69-.56-.55-1.73-.67-1.37-1.87.33-1.07,1.29-.93,2.12-1.05,6.67-.96,13.35-1.91,20.01-2.9,1.03-.15,2.01-.58,3.04-.77,3.71-.7,4.15-.22,5.4,3.32.66,1.88,1.16,3.97,2.84,5.43.69.61,1.32,1.39.83,2.66-.5,1.28-1.33,1.39-2.42,1.44-2.66.11-5.29.79-8.26.35Z"/>
    <path class="cls-2" d="m262.46,194.83c-.86,0-1.76.17-2.57-.04-1.1-.29-2.45-.89-2.65-1.93-.23-1.2,1.45-.85,2.1-1.42,1.41-1.21,3.05-1.88,4.79-2.43,1.18-.37,1.83-1.26,2.21-2.44.73-2.19,2.32-3.05,4.6-3.09,3.25-.06,3.88-1.03,3.13-4.34-.36-1.61,1.63-6.66,2.97-7.51,1.59-1.01,4.07-.33,4.88,1.43,1.72,3.72,1.24,7.52-.34,11.04-3.69,8.21-11.03,10.27-19.14,10.71Z"/>
    <path class="cls-2" d="m216.16,243.4c.43.48.04.85-.15,1.26-1.1,2.44-.36,3.71,2.31,3.99,1.78.19,3.57-.4,5.33.09-2.13,1.17-4.41.7-6.6.49-1.17-.11-2.36-1.05-2.6-2.32-.28-1.45.26-2.78,1.71-3.52Z"/>
    <path class="cls-2" d="m230.47,237.86c-3.61.53-6.85,2.23-10.31,3.24,3.12-2.09,6.35-3.82,10.31-3.24Z"/>
    <path class="cls-2" d="m255.82,188.19c.84-3.05-1.68-4.03-3.39-5.52-.06-.05-.1-.2-.07-.24.09-.13.22-.23.34-.34,1.07.77,2.12,1.54,3.19,2.29,1.86,1.31,2.34,2.58-.07,3.81Z"/>
    <path class="cls-2" d="m272.56,168.48c1-3.44-.61-5.24-3.78-6.09-.02,0-.04-.17,0-.24.04-.08.14-.12.22-.18,4.94.83,6.19,3.13,3.56,6.51Z"/>
    <path class="cls-2" d="m260.46,181.27c1.91,1.43,2.92.14,3.87-1.3,1.03-.24,1.31.47.75.98-.85.77-1.27,2.52-2.99,1.8-.66-.28-1.26-.73-1.87-1.11-.04-.03-.04-.2,0-.26.04-.06.16-.07.24-.11Z"/>
    <path class="cls-2" d="m305.75,236.15c-1.27,2.23-3.9,2.09-5.75,3.3,1.29-2.2,3.89-2.11,5.75-3.3Z"/>
    <path class="cls-2" d="m248.83,128.82c-2.09.32-3.79-1.14-5.78-1.26,2.06-.41,3.95.4,5.89.81.03,0,.06.16.04.22-.02.08-.1.15-.16.23Z"/>
    <path class="cls-2" d="m297.09,239.65c-1.09,1.38-2.57,1.53-4.15,1.32,1.31-.7,2.64-1.28,4.15-1.32Z"/>
    <path class="cls-2" d="m258.1,161.84c-.96.44-1.64,1.56-2.91,1.22.73-.99,1.68-1.45,2.91-1.22Z"/>
    <path class="cls-2" d="m253.47,250.93c.4-1.33,1.26-1.46,2.37-.91-.61.78-1.46.92-2.37.91Z"/>
    <path class="cls-2" d="m299.85,117.84c-.71-.13-1.84.82-1.96-.78.73.08,1.74-.57,1.96.78Z"/>
    <path class="cls-2" d="m297.76,243.48c-.3-.11-.49-.46-.21-.56.95-.34,1.84-.22,2.37.8-.82.75-1.39-.62-2.16-.24Z"/>
    <path class="cls-2" d="m294.91,116.28c-.33.66-.64.63-.93-.03.33-.47.63-.5.93.03Z"/>
    <path class="cls-2" d="m309.43,244.48c-.28-.38.04-.42.28-.45.04,0,.12.24.18.38-.09.41-.27.28-.47.08Z"/>
    <path class="cls-2" d="m287.39,116.05c-.28.48-.55.39-.79-.03.28-.34.54-.31.79.03Z"/>
    <path class="cls-2" d="m164.56,304.52c-.08-.03-.15-.06-.23-.09.06-.05.13-.11.19-.16.02.08.04.16.06.24,0,0-.02.02-.02.02Z"/>
    <path class="cls-2" d="m197.09,153.45s-.03.01-.03.01c0,0,.03-.01.03-.01Z"/>
    <path class="cls-2" d="m252.58,189.5s0-.03,0-.03,0,.03,0,.03Z"/>
    <path class="cls-6" d="m467.08,272.19c-2.05-.19-3.22.59-4.15,2.59-1.11,2.37-2.68,4.57-4.6,6.46-.99.98-2.17,1.35-3.4.93-1.07-.36-2.69-.23-2.8-1.94-.09-1.42.35-2.65,1.87-3.18.52-.18,1.25-.23.94-1.07-.22-.61-.81-.76-1.4-.81-.97-.08-1.84.16-2.75.57-2.54,1.15-5.05.4-5.48-1.64-.56-2.66,1.14-3.52,3.37-3.91,5.7-1,11.4-1.99,17.08-3.08,3.24-.63,5.97-2.48,8.37-4.57,2.24-1.95,1.13-4.75-1.62-6.71-8.02-5.7-17.23-6.52-26.57-6.89-2-.08-3.33-.56-3.35-2.89-.02-2.06.83-2.88,2.93-2.88,6.68.02,13.24,1.08,19.67,2.65,4.46,1.09,9.01,2.88,12.23,6.16,2.44,2.48,4.75,5.29,4.18,9.93-.49,4.02-2.63,5.43-5.34,7.06-2.84,1.7-5.66,3.46-9.18,3.22Z"/>
    <path class="cls-6" d="m127.83,364.98c.73,4.88-.38,9.41-.69,13.95-.17,2.54-1.01,5.18-1.57,7.78-.28,1.28-1.07,2.18-2.66,1.97-1.53-.2-1.67-1.28-1.81-2.47-.51-4.42.51-8.75,1.11-13.04,1.23-8.86.43-17.37-2.36-25.82-.72-2.17-1.42-4.25-2.67-6.17-.66-1.01-.76-2.23.33-3.11,1.15-.92,2.3-.67,3.36.27,2.82,2.51,4.51,5.88,5.19,9.36,1.13,5.76,2.66,11.56,1.77,17.28Z"/>
    <path class="cls-6" d="m47.14,135.64c-.08,2.93-.88,5.68-1.69,8.42-.42,1.41-1.27,2.53-2.88,2.08-1.67-.47-1.58-1.95-1.33-3.32,1.29-7.02.8-13.66-3.93-19.47-.48-.59-.94-1.24-1.22-1.93-.52-1.32-.55-2.71.72-3.63,1.26-.91,2.53-.62,3.59.5,4.61,4.88,6.17,10.93,6.75,17.35Z"/>
    <path class="cls-6" d="m156.05,136.46c.2,5.28-1.03,10.66,1.4,15.8.72,1.51.39,3.25-1.71,3.88-2.19.66-2.87-.87-3.51-2.41-2.24-5.45-1.92-11.19-1.85-16.9.06-4.09.15-8.17-.62-12.24-.91-4.83-2.96-9.23-4.74-13.73-.55-1.39-.51-2.66.65-3.23,1.31-.64,2.9-.88,3.92.96,2.29,4.15,3.95,8.36,5.13,13.09,1.25,5.03.92,9.87,1.32,14.79Z"/>
    <path class="cls-6" d="m221.72,96.85c-.64-.04-.84-.03-1.02-.07-8.39-1.85-15.39,1.28-21.85,6.19-2.49,1.89-4.9,3.83-6.74,6.49-.86,1.23-2.26,3.15-4.41,1.21-1.89-1.7-1.37-3.21-.05-4.97,2.73-3.63,6.03-7.15,9.78-9.08,6.69-3.44,13.59-7.68,21.87-5.61.73.18,1.52.18,2.28.14,2.26-.11,2.79,1.46,2.75,3.14-.04,1.76-1.09,2.81-2.59,2.56Z"/>
    <path class="cls-6" d="m211.63,83.79c-9.13.32-17.63,2.56-24.73,8.62-1.49,1.27-2.36,3.25-3.8,4.6-1.12,1.04-2.52,3.19-4.22,1.55-1.53-1.47-1.48-3.46.55-5.17,1.56-1.32,2.5-3.34,3.99-4.75,6.12-5.75,13.53-8.76,21.81-9.59,2.55-.25,5.15-.06,7.72-.1,2.02-.03,3.79.39,3.65,2.88-.13,2.29-1.8,2.3-3.55,1.97-.46-.09-.95-.01-1.43-.01Z"/>
    <path class="cls-6" d="m226.74,106.91c2,.17,4.02.2,5.98.54,1.52.26,2.78,1.25,2.4,2.98-.4,1.76-1.87,2.25-3.57,2.01-9.02-1.31-17.02.93-24.06,6.75-1.46,1.21-3.03,2.26-4.37,3.64-1.25,1.28-2.87,1.73-4.26.16-1.19-1.35-1.1-2.72.4-3.94,3.84-3.1,7.38-6.58,12.16-8.4,4.97-1.9,9.73-4.47,15.33-3.74Z"/>
    <path class="cls-6" d="m145.78,154.14c-3.86-.25-5.84-2.38-7.17-5.28-1.01-2.19-.09-4.03,1.25-5.76,1.36-1.76,3.12-1.76,4.82-.85,1.56.84,1.4,2.06.52,3.58-.78,1.34-.43,2.72,1.42,3.26,1.53.45,2.07,1.66,1.77,3.13-.33,1.58-1.52,2.05-2.61,1.92Z"/>
    <path class="cls-6" d="m136.92,123.72c-.59-.07-1.48.13-2.28-.75-2.53-2.8-1.37-9.77,2.04-11.4,1.24-.59,2.48-.32,3.43.63.9.9,1.07,1.9.15,3.04-1.03,1.29-1.63,2.5.51,3.63,1.99,1.06.92,2.65-.1,3.81-.86.98-2.15,1.15-3.76,1.03Z"/>
    <path class="cls-6" d="m142.32,191.39c7.34.05,13.88.17,20.26,2.15,1.77.55,3.81.14,5.68.45,2.73.46,4.81,2.21,2.85,5.63-2.68,4.68-5.05,9.53-7.46,14.36-3.29,6.61-5.59,13.49-5.33,21.01.03.95.05,1.91,0,2.86-.26,5.94-4.79,7.21-9.06,5.3-3.02-1.34-6.22-2.83-8.64-5.29-4.51-4.58-8.74-9.34-11.18-15.47-2.17-5.46-4.75-10.75-6.51-16.39-1.07-3.42-1.31-6.6.64-9.89,1.11-1.87,2.76-2.11,4.41-2.97,4.94-2.57,10.08-1.3,14.35-1.75Z"/>
    <path class="cls-6" d="m236.34,162.85c.11,2.57-2.39,5.05-5.18,5.14-3.11.1-5.21-1.93-5.38-5.19-.2-3.7,1.39-5.59,4.79-5.69,3.74-.11,5.6,1.74,5.77,5.73Z"/>
    <path class="cls-6" d="m308.2,134.99c3.01-.8,4.84.94,5.8,3.3.93,2.3.46,4.79-1.6,6.47-1.98,1.62-4.2,1.32-6.42.24-2.26-1.1-2.05-3.4-2.11-5.14-.08-2.59,1.38-4.58,4.31-4.9,0,0,.02.03.02.03Z"/>
    <path class="cls-2" d="m308.2,134.99s-.02-.03-.02-.03.02.03.02.03Z"/>
    <path class="cls-6" d="m350.84,160.5c-.39,1.42-.65,2.63-2.83,2.04-5.68-1.55-10.3-5.12-15.33-7.87-1.18-.65-2.61-1.92-1.74-3.45.8-1.42,2.31-1.19,3.88-.56,4.86,1.93,9.3,4.7,14.05,6.83,1.3.58,1.68,1.72,1.97,3.01Z"/>
  </g>
  <path class="cls-6" d="m122.27,232.53c-.47-.62-.58-1.56-1.58-1.68,0,0,.08-.1.08-.1l-.1.08c-1.13-2.03-2.25-4.06-3.38-6.09-.17-2.23-1.78-3.69-2.92-5.39-3.1-4.93-5.47-10.17-7.02-15.81-1.4-5.09-1.03-10.28-.5-15.34.28-2.7,2.97-4.69,5.63-5.82,4.62-1.96,9.43-2.8,14.51-2.51,3.31.19,4.39-1.78,3.61-5.06-.95-4.03-.47-8.17-.69-12.26,0,0,.04-.03.04-.03.17-7.52-1.58-14.89-1.69-22.42-.06-3.8-2.12-7.42-3.15-11.16-1.31-4.71-3.19-9.29-3.51-14.21-.14-2.21-1.19-4.13-1.25-6.35-.18-7.16,1.71-13.76,4.87-20.07,2.17-4.35,1.21-8.26-2.35-11.69-5.16-4.97-11.72-6.89-18.24-9-3.52-1.14-7.07-2.16-10.57-3.34-1.08-.36-2.02-1.11-2.25-2.37-.26-1.47,1.03-1.97,1.87-2.6,5.15-3.91,11.21-5.08,17.47-5.47.87-.05,1.63-.3,2.44-.56,3.47-1.11,3.85-2.54,1.14-5.15-1.27-1.22-2.76-2.24-4.23-3.23-4.08-2.74-7.72-5.95-10.83-9.76-1.56-1.92-1-3.58,1.38-4.23,5.8-1.58,11.71-2.35,17.59-1,3.55.81,6.95,2.36,10.31,3.83,2.13.94,3.16.53,3.5-1.74.44-2.86.9-5.71,1.35-8.55.87-.43.66-1.17.5-1.88.04-.64.08-1.28.12-1.91.93-1.5,2.11-2.9,1.99-4.84.3-3.67,1.23-7.13,3.85-9.85,1.19-1.23,1.55-2.95,2.87-4.11,1.65-1.45,4.27-1.03,4.24,1.03-.03,2.31,1.16,4.29,1.05,6.51.48,1.39.96,2.79,1.44,4.19.09.85.17,1.7.28,2.55.13.99-.08,2.32,1.32,2.43,1.12.09,1.77-.79,2.13-1.88,2.28-6.92,7.96-10.76,13.48-14.74.22-.16.53-.2.79-.3.8.44,1.75.71,2.15,1.67,2.07,6.69,1.35,13.61,1.5,20.43.05,2.23.4,4.18,1.27,6.24,1.33,3.15,2.3,6.46,3.24,9.76.67,2.33,1.95,3.37,4.41,3.28,5.09-.19,10.22-.82,15.13,1.36.8.36,1.89.13,2.84.1,4.62-.16,8.54,1.97,12.7,3.56,4.71,1.8,8.68,4.92,13.32,6.72.88.34,1.4.9,2,1.46,4.36,4.08,8.7,8.2,12.18,13.1.89,1.25,2.14,1.08,3.34,1.08,2.96,0,5.92.02,8.88-.16,5.12-.31,8.53,2.93,11.02,6.42,1.99,2.79,4.21,4.89,7.14,5.93,4.43,1.58,6.75,4.91,8.47,8.81,1.08,2.45,2.47,3.52,5.28,3.65,6.53.3,17.06,7.28,16.03,16.08-.28,2.37.57,3.04,3.05,3.51,4.32.81,8.25,3.02,11.82,5.69,1.51,1.13,3.14,2.16,4.46,3.49,4.46,4.52,7.9,9.58,8.22,16.26.13,2.75,2.72,1.52,3.4,1.13,3.8-2.16,7.87-1.96,11.98-2.24,3.57-.24,6.67,1.36,9.83,2.27,2.21.63,3.91,3.43,5.6,5.46,5.07,6.12,4.43,13.39,1.38,19.49-2.49,4.99-7.02,9.57-13.77,9.86-1.59.07-2.66.86-2.39,2.75.11.75.02,1.53.02,2.29,0,2.37.14,4.41,2.94,5.61,3.02,1.3,5.71,3.34,8.56,5.03,2.3,1.37,5.18,1.43,7.21.59,5.67-2.36,11.47-1.15,17.2-1.68,5.75-.53,9.13,2.45,11.84,6.91.43.72.18,1.5.62,2.14,0,0-.03.02-.03.02.3,2.21.33,4.44.15,6.66-.04.01-.12.04-.11.05.03.1.06.19.1.29-2.54,6.5-7.31,10.49-13.54,13.56-4.34,2.14-9.04,3.09-13.32,5.25-1.37.69-3.07.76-4.7.84-2.16.11-4.38-.41-6.48.45-2.44.03-3.25,2.31-4.82,3.55-3.48,3.12-8.25,3.54-12.13,5.83-2.05,1.21-4.93-.09-6.79,2.14-1.2,1.44-1.85,3.18-3.3,4.53-2.65,2.47-5.82,3.67-8.96,5.23-4.73,2.35-9.61,2.91-14.34,2.1-4.84-.83-7.84,1.74-11.46,3.64-3.56,1.87-7.28,3.54-11.54,2.74-2.1-.4-3.44.28-3.59,2.65-.23,3.63-.07,3.87,3.02,3.86,2.48-.01,4.97-.04,7.45-.06,4.78-.04,8.1,2.77,11.63,5.52,4.02,3.13,5.25,6.99,4.58,11.76-.3,2.11.52,3.04,2.71,2.81,2.61-.27,5.3-.61,7.75-1.25,6.3-1.66,12.71-1.13,19.04-1.51,6.97-.42,13.79-1.51,20.47-3.27,3.95-1.04,7.48-3.41,11-5.55,4.83-2.94,9.01-6.84,13.79-9.78,6.48-3.98,12.99-7.91,19.48-11.87,5.29-3.23,10.58-6.47,16.01-9.45,3.6-1.97,7.25-4.06,11.58-4.02,1.85.06,3.19-1.35,4.9-1.72,2,.21,4-.17,5.75-.93,2.36-1.02,4.75-1.28,7.16-1.05,2.46.23,4.82-.43,6.78-1.39,3.86-1.9,8.33-2.3,11.8-5.02,2.27-.19,3.92-1.5,5.4-3.1.59-.11,1.17-.21,1.75-.32,0,0,.08,0,.08,0,4.24-2.05,8.48-4.11,12.73-6.16,1.75-.85,3.58-1.64,5.49-1.72,4.58-.18,9.17-.16,13.75-.13,3.05.02,5.66,1.81,6.56,4.23,1.04,2.77.83,6.08-.89,8.99-2.16,3.63-5.42,6.29-8.01,9.53-2.12,2.65-4.27,5.3-6.2,8.08-1.76,2.53-1.44,4.67,1.1,6.4,6.04,4.11,10.93,9.41,15.8,14.76,2.97,3.26,4.7,6.91,4.34,11.46-.23,2.95-2.13,4.94-5.06,5.27-7.55.86-14.96-.77-22.44-1.13-4.07-.2-6.39,1.18-8.05,4.8-1.66,3.6-3.21,7.37-5.36,10.6-2.98,4.48-4.8,9.69-8.66,13.63-1.2,1.22-1.73,3.07-2.71,4.54-6.13,9.17-13.72,17.06-21.74,24.57-4.07,3.82-7.84,7.96-11.94,11.74-4.14,3.82-8.2,7.77-13.11,10.68-.7.41-1.61.67-1.7,1.7-2.25.66-4.14,1.86-5.49,3.83-4.13,3.21-8.9,5.39-13.24,8.25-2.3,1.52-2.55,4.23-.1,7.17,5.77,6.94,9.8,14.89,13.73,22.91,3.44,7.01,6.76,14.1,8.84,21.65,1.95,7.07,4.16,14.08,4.79,21.48.24,2.89,2.6,4.86,4.93,6.43,5.29,3.57,8.44,8.86,11.77,14.05,3.65,5.69,7.43,11.3,11.14,16.95,2.41,3.68,3.89,7.86,6.08,11.63,3.28,5.63,5.12,11.84,7.65,17.77,2.53,5.92,4.55,12.11,6.26,18.33,2.04,7.41,3.27,15,4.51,22.62,1.81,11.08,1.82,22.05,1.76,33.11-.05,9.23-2.44,18.08-5.3,26.78-2.73,8.3-4.93,16.82-8.74,24.71-1.52,3.14-1.87,6.19-1.98,9.52-.13,4.16,1.53,7.48,4.25,10.32,3.55,3.7,7.36,7.14,10.89,10.85,4.89,5.13,10.36,9.68,14.99,15.08.98,1.14,1.64,2.32,1.84,3.73.92,6.71,1.61,13.37-4.98,18.03-.78.55-1.5,1.28-2.43,1.36-4.46.34-8.94.75-13.35-.44-.74-.39-1.49-.78-2.23-1.16-5.17-.08-10.07-2.05-14.42-4.12-5.41-2.58-10.88-5.24-16.19-8.15-5.57-3.05-11.4-5.67-17.69-6.98-3.75-.78-7.01-3.13-10.91-3.4-1.28-.59-2.42-1.62-3.99-1.45-8.18-1.08-16.18-3.4-24.56-3.21-7.5.16-13.56-3.2-18.08-9.03-1.85-2.39-3.35-5.22-4.29-8.09-2.11-6.41-5.43-12.08-10.01-16.88-3.61-3.79-8.02-6.49-12.85-8.93-5.25-2.64-10.45-3.66-16.02-3.98-1.6-.09-3.22.21-4.82.33-1.11-.66-1.66-.03-2.06.92-4.41,1.32-8.74,3.15-13.25,3.82-5.79.86-10.89,3.67-16.68,4.69-8.02,1.42-16.01,1.8-24.07,2.35-11.7.8-23.42,1.58-35.07.64-6.94-.56-14.05-.37-20.87-2.49-2.3-.72-4.63-.37-6.6,1.93-6.21,7.23-12.25,14.59-18.2,22.05-4.59,5.76-10.16,10.64-15.33,15.88-6.9,7-15.06,12.56-21.86,19.63-.94.97-1.41,2.39-2.1,3.59-2.02,2.91-2.04,4.07-.13,6.37.64,2.23,1.55,4.42,1.88,6.69.65,4.52-.85,8.56-3.79,11.95-3.91,4.51-7.67,9.23-12.1,13.18-4.53,4.04-9.85,7.12-15.17,10.17-3.69,2.12-7.67,3.34-11.56,4.56-3.09.97-6.6,1.48-9.97,1.53-7.54.13-15.27.93-22.5-1.38-6.06-1.94-11.91-4.88-16.7-9.38-3.06-2.88-5.93-5.92-7.72-9.8-.23-.5-.29-1.08-.43-1.62,0,0,0-.01,0-.01-.22-.2-.45-.41-.67-.61,0,0,.05-.23.05-.23l-.21-.11c-1.32-6.15-.13-12.14,1.38-18.04.43-1.67.42-3.35.88-4.98.49-1.2.81-2.44.74-3.75.3-6.69.8-13.38-1.31-19.92-.31-.97-.23-2.07-.32-3.1-.5-2.17-1.27-4.24-2.57-6.08-2.45-5.55-4.35-11.31-6.79-16.88-4.11-9.4-8.21-18.9-9.28-29.24-1.26-12.15-1.03-24.37-.2-36.53.25-3.66,1.03-7.3.88-11.03-.08-1.99.79-3.73,1.4-5.59.95-2.92.91-6.16,1.29-9.25.68-.65.96-1.43.72-2.37,1.29-7.59,2.73-15.13,4.97-22.52,1.84-6.07,3.75-12.16,4.92-18.38,1.52-8.02,4.77-15.55,6.16-23.59.69-4,1.54-8,2.74-11.87,1.55-4.98,1.65-10.15,2.47-15.21.59-.31.81-.79.66-1.44.67-1.2.86-2.48.94-3.85.2-3.38-.22-6.79,1.53-10.06.99-1.85.52-4.28.7-6.44,1.05-12.78,1.54-25.59,1.89-38.41.36-13.18-.28-26.34-1-39.47-.19-3.49-1.15-7.12-3.04-10.55-3.91-7.11-6.82-14.77-10.58-21.99-3.18-6.11-4.84-12.84-8.03-18.87-2.66-5.02-4.51-10.37-6.81-15.5-2.05-4.57-3.79-9.45-5.25-14.36-1.56-5.23-3.97-10.21-5.41-15.47-1.04-3.78-2.42-7.56-2.89-11.42-.64-5.31-2.74-10.26-3.13-15.61-.56-7.53-3.61-14.75-2.88-22.47.09-.92.28-1.98-.37-2.78-2.41-2.96-1.67-6.41-1.7-9.78-.04-4.64,0-9.27-.6-13.93-1.2-9.2-.41-18.49-.41-27.74,0-3.15.16-6.3.24-9.46,0,0,0,0,0,0-.04-3.19-.09-6.38-.13-9.57.04-.03.13-.07.12-.1-.02-.11-.07-.21-.1-.32-.03-2.43-.05-4.86-.08-7.28-.28-1.19,1.65-2.41-.04-3.6.01-.92.02-1.83.03-2.74.41-4.04-.17-8.15.6-12.19.14-1,.29-1.99.43-2.98.05-.03.16-.08.16-.11-.02-.15-.07-.29-.11-.43,1.93-5.19,1.17-10.74,2.2-16.05.94-4.84,1.79-9.63,3.62-14.34,1.53-3.92,2.58-8.03,4.75-11.69,1.96-3.3,4.75-5.85,7.89-7.96,1.87-1.26,4.5-.37,6.34,1.81.04.69.27,1.31.83,1.77.13.76.26,1.52.38,2.28-.23.28-.21.54.06.79.28.7.57,1.41.85,2.1-.2.56.06.96.58,1.03.51.07.91-.19.8-.83,5.51-6.67,11.81-12.59,17.92-18.69,2.97-2.96,6.4-3.71,10.27-3.34,2.3.21,5.12,3.54,5.28,5.91.36,5.18-.56,10.06-2.87,14.76-3.4,6.94-4.56,14.27-2.96,21.91.29,1.39.78,2.84,2.32,3.24,1.3.34,2.55.08,3.61-1.06,1.95-2.08,4.23-3.68,7.13-4.25.59-.12,1.17-.59,1.62-1.03,4.67-4.62,10.53-4.88,16.53-4.54,2.37.13,2.97,1.95,3.18,3.94.71,6.66-1.05,12.79-3.9,18.71-1.68,3.49-3.63,7.12-3.75,10.91-.11,3.64-.07,7.35,0,11.03.1,5.87.96,11.41,3.22,16.95,1.17,2.85,1.83,6.19,2.21,9.46.28,2.43,1.1,4.9,2.17,7.12,1.42,2.96,1.92,6.19,3.18,9.16.97,2.33,1.95,4.66,2.93,6.99,1.62,4,3.18,8.02,4.86,11.99,3.76,8.86,8.77,17.07,13.27,25.55,3.89,7.33,8.55,14.23,13.57,20.87.92,1.21,2.02,1.47,2.88.86,1.78-1.28,3.41-2.83,4.85-4.49.55-.64.37-1.85-.56-2.55.08-.75-.42-.62-.87-.58-.25-.19-.51-.37-.76-.56-1.96-3.16-5.03-5.37-7.19-8.35-1.73-1.21-2.33-3.29-3.7-4.76.31-1.66-.61-2.64-1.9-3.41Zm363.01,459.39c-.16-.31-.32-.61-.48-.92-.88-3.69-4.31-5.37-6.42-8.1-.17-.21-.79-.34-.99-.2-.44.3-.38.83-.12,1.27,1.43,2.37,2.34,5.07,4.44,7.01.61,1.6,1.22,3.2,1.82,4.8-.61,1.29-.23,2.64-.13,3.94.1,1.25-.7,3.21.66,3.6,1.59.45,1.36-1.84,2.11-2.79,1.99-2.52,1.38-6.53-.89-8.62ZM252.58,189.5v-.03c1.08-.43,2.16-.85,3.24-1.28,2.41-1.23,1.93-2.5.07-3.81-1.07-.75-2.12-1.52-3.18-2.28-.85-.59-1.64-1.34-2.58-1.73-1.97-.82-2.9-2.51-1.85-4.04.88-1.27,2.91-.67,4.39.06,2.76,1.36,5.3,3.09,7.79,4.89-.08.03-.2.04-.24.11-.04.06-.04.23,0,.26.62.39,1.21.84,1.87,1.11,1.72.72,2.15-1.03,2.99-1.8.57-.51.28-1.22-.74-.98-3.07-1.78-6.14-3.56-9.22-5.34-1.6-.93-2-2.15-1.05-3.81.88-1.53,2.38-1.71,3.37-.74,2.42,2.34,5.92,2.71,8.34,5.07,1.52,1.48,2.96.72,4.28-.93,1.4-1.74,2.32-3.54,2.5-5.75,2.63-3.38,1.38-5.68-3.55-6.51-3.63-1.08-7.27-.72-10.92-.13-1.23-.23-2.18.23-2.9,1.22-1.71.17-2.81,1.44-4.18,2.26-7.43,4.41-9.3,16.95-3.1,22.81,1.57,1.48,2.66,2.37,4.66,1.38Zm-28.94,59.25c.71-1.5,2.43-1.03,3.56-1.87,3.96-2.94,4.9-2.85,8.54.38,5.22,4.62,11.23,5.29,17.72,3.66.91,0,1.76-.13,2.37-.91,1.02-.5,2.12-.87,3.03-1.53,2.41-1.73,4.58-1.79,7.22-.15,5.42,3.39,11.26,4.32,17.53,2.28,4.29-1.4,7.97-3.76,11.55-6.35.83-.6,1.57-1.01,2.59-.79.77-.37,1.34.99,2.16.24,2.99,2.56,6.25,1.63,9.51.76.19.2.37.34.46-.08,4.22.11,7.34-2.7,10.96-4.15.82-.33,1.58-.96,1.56-1.81-.03-1.14-1.18-.95-1.97-1.15-1.08-.28-2.13-.74-3.23-.95-3.8-.75-7.58-3.96-11.46-.18-1.86,1.19-4.46,1.09-5.74,3.3-.98.07-1.95.14-2.93.2-1.51.04-2.85.61-4.15,1.32-5.5,1.41-10.58.13-15.42-2.46-1.37-.73-2.66-1.42-4.3-.9-8.47,2.7-16.94,1.01-25.44.08-5.75-.63-11.55-.87-17.31.18-3.96-.58-7.18,1.15-10.3,3.24-1.7.13-2.38,2.05-4.01,2.3-1.46.74-1.99,2.07-1.71,3.52.24,1.27,1.43,2.21,2.6,2.32,2.19.21,4.48.68,6.6-.49Zm71.27-132.47c-.29-.52-.6-.5-.92-.03-2.2-.13-4.39-.52-6.6-.2-.25-.34-.51-.37-.79-.03-.85.58-1.85.34-2.77.51-2.92.56-5.97.85-8.7,1.93-4.2,1.67-8.05,4.07-11.53,7.08-3.28,2.84-3.19,3.54.05,6.26,3.29,2.75,6.75,5.27,9.15,9.18,2.51,4.07,3.74,8.54,5.14,12.87.93,2.88,1.94,2.2,4.04,2.25,9.34.22,18.63-1.33,27.95-.71,4.96.33,7.97-.54,10.49-5.76,3.16-6.55,1.32-16.25-2.07-20.51-4.05-5.08-9.49-8.51-15.52-10.95-.97-.39-1.91-.92-2.99-.34-.22-1.35-1.23-.7-1.96-.78-.99-.26-1.99-.52-2.98-.78Zm-46.08,12.54c.05-.07.13-.14.16-.23.02-.07-.01-.22-.04-.22-1.94-.41-3.83-1.22-5.88-.81-6.17-1.39-12.36-.54-18.35.7-5.62,1.17-11.01,3.21-15.49,7.35-4.04,3.72-8.14,7.19-10.25,12.48-.7,1.77-.7,3.77-1.89,5.34h-.03c-2.12,8.3.06,15.8,4.2,22.93,1.75,3,3.18,3.57,6.76,2.77,2.23-.5,4.4-1.57,6.7-1.42,7.04.44,13.55-2.61,20.51-2.9,2.31-.1,5.28-.59,6.27-3.59,2.47-7.55,8.36-11.14,15.4-13.34,4.85-1.51,9.72-.94,14.55.3,2.47.63,2.84-.71,2.46-2.67-1.36-6.95-5.01-12.71-9.73-17.79-4.17-4.5-9.65-6.92-15.33-8.91ZM19.41,88.9c-.77-.03-1.23.5-1.67.99-2.93,3.29-4.72,7.26-5.63,11.45-1.71,7.89-3.3,15.79-4.34,23.83-1.11,8.63-1.88,17.26-2.01,25.93-.21,15.1-.16,30.2-.13,45.3.02,11.17.84,22.28,1.72,33.42.6,7.65,2.48,15.19,2.05,22.93-.08,1.37.31,2.68.95,3.82.83,1.48,1.06,3.08,1.17,4.67.31,4.57,2.17,8.79,2.85,13.27.61,4.03,3.08,7.42,3.81,11.48,1.28,7.13,4.26,13.84,6.89,20.5,2.25,5.71,4.74,11.44,7.17,17.12,3.32,7.74,6.92,15.36,9.98,23.22,2.03,5.21,4.57,10.32,7.18,15.35,3.17,6.12,6.68,12.07,9.4,18.46,1.72,4.05,4.26,7.81,6.49,11.66,2.27,3.91,4.81,7.67,6.89,11.7.77,1.49,0,2.65-.96,3.42-1,.8-2.23.21-3.11-.61-.55-.51-.95-1.19-1.35-1.83-3.25-5.25-6.48-10.51-9.83-15.94-.77,1.17-.45,2.11-.38,3.02.26,3.47.63,6.94.76,10.41.26,6.97.14,13.94-.31,20.9-.59,9.12-1.14,18.24-1.8,27.36-.44,6.18-1.51,12.3-1.54,18.51,0,1.41-.25,2.92.99,4.02,3.67,3.26,6.85,7.04,10.89,9.92,3.77,2.7,8.58,2.88,12.51.41,4.11-2.59,6.83-6.48,9.89-10.08,6.79-8.01,12.71-16.87,21.98-22.5,4.01-2.43,8.23-4.09,12.92-4.26,10.93-.38,18.05,7.15,25.64,13.12,6.31,4.97,11.47,11.38,18.85,15.07,7.89,3.95,15.45,4.47,23.17-.71,7.81-5.25,13.74-12.51,20.7-18.67,5.55-4.91,10.83-9.81,18.02-12.37,9.04-3.22,18.06-3.86,27.12-.77,1.93.66,3.99,1.45,5.84,2.71,5.62,3.82,9.19,9.63,14.21,14.04,4.73,4.16,10.18,5.84,16.2,5.74,6.91-.12,13.1-2.95,18.39-7.07,6.38-4.98,12.7-10.08,18.36-15.96,4.41-4.58,9.9-7.16,16.53-7.25,10.68-.16,17.94,6.26,24.74,13.03,3.7,3.69,7.96,6.05,12.5,7.99,1.94.83,4.29,1.89,6.57,1.56,6.11-.9,8.99-4.52,10.61-10.67.98-3.73,1.39-7.62,2.4-11.34,1.94-7.11,2.53-14.44,1.65-21.59-.88-7.18-5.83-12.97-9.16-19.26-1.83-3.46-5.13-6.13-6.97-9.59-3.93-7.34-9.28-13.66-13.89-20.51-1.95-2.9-3.99-5.78-6.35-8.34-4.24-4.6-7.75-9.76-11.72-14.55-4.12-4.97-7.97-10.14-12.26-14.98-1.76-1.98-4.09-3.3-5.62-5.44-.49-.68-1.02-1.49-.52-2.38.56-.99,1.59-.87,2.54-.94,1.09-.08,1.86.62,2.5,1.21,2.95,2.74,5.99,5.28,8.55,8.57,5.47,7.03,11.12,13.94,16.79,20.82,2.48,3,5.46,5.64,7.58,8.87,3.34,5.1,7.36,9.67,10.7,14.75.8,1.21,1.47,1.04,2.8.59,4.48-1.53,8.27-4.42,11.75-7.2,8.23-6.59,17.26-12.25,24.28-20.4,2.15-2.5,5.4-4.2,7.95-6.53,4.96-4.55,9.86-9.16,14.33-14.22,1.1-1.24,1-2.9,2.37-4.09,5.9-5.11,10.78-12.85,13.71-21.01.19-.52.56-.34.92-.23.74.23.95-.26,1.21-.83,2.31-4.99,4.18-10.19,7.02-14.94,2.94-4.9,6.58-8.31,12.98-7.76,5.31.46,10.42,2.3,15.86,1.82,2.08-.18,3.53-.93,4.4-2.59.87-1.66-.1-2.97-1.19-4.35-2.81-3.57-6.18-6.62-9.14-10.06-2.56-2.97-4.96-6.97-10.09-5.88-.18.04-.42-.35-.66-.5-3.12-1.9-2.93-2.84-.8-7.07,3.02-6,6.99-11.12,11.81-15.77,2.14-2.06,4.38-4.23,5.77-7.02,1.33-2.69.78-4.36-2-5.23-1.17-.37-2.42-.47-3.63-.71-4.69-.91-8.67,1.67-12.89,2.86-3.32.93-6.92,1.9-9.59,4.16-4.06,3.44-9.08,4.75-13.73,6.64-5.76,2.34-11.9,3.88-18.14,4.86-4.77.74-9.51,1.69-14.22,2.97-3.45.94-7.01,1.79-10.23,3.19-8.23,3.58-15.46,9.01-23.27,13.4-9.66,5.44-18.27,12.46-27.53,18.53-5.83,3.82-12.12,6.37-18.72,7.58-12.73,2.35-25.67,3.36-38.6,4.18-4.69.3-9.36.35-13.75,2.96-2.64,1.57-5.42,3.34-8.84,3.69-2.01.21-4.54,1.08-4.44,4.22.16,4.64-2.76,7.85-5.74,10.7-3.79,3.63-8.94,4.45-13.94,4.87-2.97.25-5.24,1.18-7.33,3.24-3.88,3.82-8.66,6.02-13.95,7.25-4.26.98-8.17.09-12.26-1.17-3.89-1.2-7.66-2.7-11.19-4.55-2.47-1.29-3.71-3.21-7.48-1.88-5.41,1.91-11.39.4-16.51-2.39-2.3-1.26-4.84-2.54-6.45-4.91-1.65-2.43-3.4-4.79-6.89-2.66-.43.26-1.14.03-1.69.16-1.46.34-3.66-.62-4.24.84-.49,1.23,1.54,2.31,2.41,3.48,2.69,3.62,4.86,7.48,5.45,12.03.18,1.41-.25,2.73-1.93,3.04-1.62.29-2.19-.91-2.59-2.12-1.58-4.77-4.29-8.94-7.17-12.94-1.58-2.19-3.45-4.4-6.1-5.58-.02-.08-.04-.16-.06-.24-.06.05-.13.11-.19.16.08.03.15.06.23.09.04.66-.14,1.44.16,1.95,1.86,3.12,3.14,6.48,4.4,9.86.62,1.67,1.58,3.23,2.04,4.94.57,2.12-.28,3.62-2.47,4.45-1.53.58-2.32-.11-2.63-1.27-1.43-5.33-3.42-10.4-6.12-15.21-2.26-4.04-4.02-8.4-6.6-12.23-4.31-6.4-9.41-12.23-13.9-18.52-4-5.61-8.24-11.06-12.14-16.77-5.72-8.39-12.09-16.33-16.93-25.32-2.57-4.76-5.59-9.3-7.95-14.15-3.58-7.34-7.03-14.76-9.77-22.47-.57-1.61-.65-3.48-1.52-4.88-2.53-4.1-3.44-8.83-4.82-13.24-2-6.41-3.92-12.9-5.54-19.46-2.03-8.23-3.38-16.5-1.74-24.89,1.42-7.32,5.15-13.88,7.88-20.76.84-2.13,1.27-4.38.25-6.24-1.11-2.03-3.31-1.99-5.59-1.46-3.7.87-6.9,2.6-9.99,4.69-3.77,2.54-7.6,4.99-11.41,7.47-1.18.77-2.15.37-3.01-.61-5.39-6.13-6.92-13.52-5.1-21.07,1.5-6.2,3.6-12.39,6.62-18.16.93-1.78,1.72-4.05,0-5.55-1.78-1.55-4.51-1.86-6.47-.54-3.13,2.11-6.09,4.58-8.69,7.31-3.26,3.41-6.18,7.16-9.06,10.91-3.08,4.02-5.38,8.23-4.95,13.74.28,3.69,1.72,6.97,2.33,10.5.25,1.46.9,3.18-1.11,3.93-2,.75-2.91-.78-3.83-2.13-2.12-3.14-1.56-6.92-2.42-10.36-1.16-4.65-.18-9.55-.98-14.25-.3-1.77.47-4.06-1.68-5.3-.5-1.62-1.21-2.29-2.43-.52ZM143.32,9.78c-1.55,3.2-2.66,5.81-3.6,8.59-2.06,6.08-1.44,12.47-2.68,18.64-.84,4.16-2.31,5.2-6.37,3.6-1.57-.62-2.44-2.16-4-2.66-5.47-1.77-10.79-4.36-16.82-3.14-.79.16-1.85-.22-2.02,1.03-.14,1,.48,1.72,1.33,1.97,2.01.58,3.45,1.99,4.98,3.23,3.67,2.98,7.6,5.7,9.98,9.99,1.64,2.95.33,5.38-2.95,5.76-5.1.59-10.17,1.37-15.1,2.87-.64.19-1.74.23-1.62,1.28.1.92.9,1.42,1.78,1.65,1,.26,2.07,0,3.03.67,3.32,2.3,7.4,3.13,10.71,5.49,2.6,1.85,5.64,3.21,7.83,5.44,1.92,1.95,2.59.65,2.91-.61.59-2.28,1.78-2.59,3.54-1.62,1.8,1,2.68,2.34,1.21,4.44-.69.98-1.5,1.86-2.01,3.05-1.93,4.58-4.08,9.04-5.74,13.76-2.72,7.7-2.83,15.34-.73,23.06,2.52,9.23,5.57,18.38,6.5,27.93.64,6.61,1.3,13.26,1.22,19.95-.04,3.22.76,6.43,1.04,9.64.32,3.7,2.51,4.17,5.25,3.94,7.39-.62,14.61.92,21.91,1.49,2.04.16,3.86,1,5.78,1.46,3.59.85,6.61,3.38,10.53,3.27,5.94-.18,11.61-1.96,17.44-2.74,1.17-.16,1.94-.84.99-1.92-1.83-2.07-2.2-4.8-3.45-7.14-1.04-1.95-2.15-4.11-2.13-6.44.04-5.58-.39-11.05,1.61-16.64,4.41-12.36,13.03-19.92,25.04-24.04,7.07-2.42,14.34-3.29,21.9-2.45,4.59.51,9.04,1.22,13.27,2.99,1.75.73,2.93.27,4.07-.91,9.34-9.7,20.83-13.96,34.17-13.39,1.94.08,2.21-.58,1.99-2.34-.73-5.8-5.6-7.44-9.73-9.7-1.13-.62-2.45-1.4-3.99-1.38-5.13.09-9.98,1.25-14.5,3.65-1.81.96-3.58,1.28-5.48.59-.88-.31-1.9-.69-1.85-1.89.05-1.09.43-2.19,1.53-2.57,3.67-1.26,6.75-3.9,10.67-4.59,1.86-.32,1.95-1.43,1.28-2.96-1.31-2.97-4.11-4.27-6.78-4.58-4.94-.58-10.04-.99-14.77,1.5-1.07.56-2.36.73-3.55,1.04-2.39.61-3.06-.7-3.07-2.77,0-1.91,1.27-2.82,2.82-3.09,3.28-.56,6.22-2.29,9.56-2.61,1.66-.16,1.91-1.03,1.06-2.33-.63-.97-1.45-1.66-2.54-2.19-2.85-1.38-5.9-1.49-8.86-1.22-4.24.39-8.42,1.31-12.64,1.98-1.74.28-3.45.05-3.91-1.91-.44-1.86.71-2.79,2.59-2.92,1.33-.1,1.33-.72.9-1.94-.71-2-2.26-3.31-3.53-4.77-5.57-6.37-12.83-10.22-20.56-13.36-5.99-2.42-12.23-3.57-18.61-3.84-6.1-.26-12.38-1.25-17.89,2.77-1.14.83-2.5.48-3.23-.78-.83-1.43-.54-2.93.91-3.73,1.96-1.06,2.81-2.88,1.92-4.51-1.46-2.68-1.54-5.62-2.48-8.34-1.92-5.53-3.56-11.04-3.22-16.98.11-1.9-.04-3.82-.12-5.73-.02-.55,0-1.21-.73-1.39-.53-.13-.84.23-1.22.56-5.9,5.1-8.23,12.02-9.75,19.32-.27,1.3-.1,2.8-1.65,3.26-1.68.5-2.46-.96-3.39-1.96-.56-.6-.56-1.38-.77-2.11-1.66-5.65-2.72-11.48-5.17-17.71Zm.84,173.8c-9.35-.5-18.54.37-27.53,3.21-4.35,1.38-6.83,4.58-5.82,8.68,1.79,7.24,4.63,14.19,7.89,20.77,3.97,8.02,7.92,16.21,14,23.06,5.91,6.66,12.37,12.18,21.85,12.57,1.66.07,3.16.58,2.84,2.7-.26,1.77-1.05,2.91-3.25,2.65-2.53-.3-5.03-.34-7.51-1.27-2.94-1.11-3.99-.16-3.9,2.98.05,1.7.1,3.43.42,5.1.77,4.07,2.28,7.85,5.5,10.63,1.07.93,3.11,1.66,3.16-.59.07-3.14,2.09-5.45,2.63-8.34.35-1.87,3.35-3.48,4.61-2.76,2.09,1.2,1.63,2.99.83,4.76-.27.61-.67,1.16-.95,1.76-1.64,3.55-3.19,7.18-2.05,11.18.84,2.95,1.06,6.04,3.03,8.73,3.92,5.32,7.55,10.81,15.26,10.55.27,0,.55.15.82.23,2.87.84,4.15-.24,3.93-3.24-.08-1.14-.11-2.29-.08-3.44.02-1.14-.05-2.4,1.32-2.89,1.46-.52,2.23.43,3.06,1.46.65.81.74,1.67.96,2.61,1.47,6.27,5.26,10.79,11,13.48,3.55,1.67,7.54,1.75,11.43,2,1.19.08,2.16-.39,2.61-1.38.58-1.31-.64-1.84-1.48-2.39-3.08-2-6.61-3.33-9.36-5.79-3.82-3.4-6.1-7.75-8.16-12.47-2.93-6.69-4.99-13.41-5.26-20.7-.28-7.65.03-15,3.62-22.24,3.03-6.11,7.03-11.13,11.74-15.81,2.11-2.1,4.84-3.18,7.38-4.63,5.26-3,10.58-5.37,16.75-5.72,4.87-.28,9.59-.3,13.02-5.45,3.45-5.16,9.08-8.28,15.01-10.46,1.85-.68,3.8-1.14,5.45-2.3.42-.29,1.29-.13,1.16-.95-.13-.8-.89-1.02-1.55-.95-2.04.23-3.83-.62-5.42-1.57-2.59-1.55-5.25-1.69-7.99-1.04-7.09,1.7-14.05,1.3-21.19-.09-7.02-1.37-13.23-4.25-18.79-8.46-2.78-2.1-5.31-2.22-8.22-1.15-1.53.56-3.07,1.16-4.69,1.17-3.08.03-6.02.64-9.01,1.37-3.45.84-6.76,1.12-10.42-.9-4.33-2.38-9.26-4.14-14.3-4.58-4.74-.41-9.54-.09-14.32-.09Zm167.91-23.42c-3.1-.04-5.59-.19-8.16.17-7.34,1.03-14.71,1.78-22.14,1.01-.6-.06-1.14-.13-1.54.43-.46.65-.03,1.15.41,1.45,2.2,1.51,3.39,3.88,4.54,6.06,1.51,2.86,2.41,6.24,2.15,9.41-.37,4.68-1.91,9.17-5.18,12.82-.39.44-.83,1.23-.29,1.48,1.61.73,3.33.39,5.04.13,1.1-.17,1.29-.68,1.4-1.69.27-2.53,1.71-3.03,4.11-1.97,2.57,1.14,4.35,3.27,6.36,4.99,2.33,2.01,4.98,4.13,5.59,7.6.59,3.37,1.53,6.7,1.83,10.09.25,2.82,1.59,3.73,4.08,3.44,2.94-.34,5.56-1.65,8.14-3,.9-.47,1.71-.96,2.52.06.59.75,2.04.94,1.52,2.41-.35,1-1.38,2.36.63,2.6,1.45.17,2.89-.23,2.97-2.24.05-1.27.86-1.79,2.11-1.79,1.22,0,2.4-.31,3.67.04,1.74.48,2.48-.46,2.93-2.17,1.22-4.66,1.54-9.49,3.08-14.09,1.13-3.38-.04-5.08-3.56-5.64-2.08-.33-4.2-.26-6.24.37-1.97.6-2.88-.48-3.31-2.13-.49-1.91.71-2.57,2.33-2.78,2.84-.36,5.7-.55,8.57-.39.82.05,1.75.37,2.34-.54.83-1.28-1.4-9.08-2.78-9.74-.25-.12-.55-.14-.83-.21-3.78-1.05-7.13.85-10.66,1.53-.25.05-.45.34-.67.53-1.4,1.24-2.91,1.73-4.17,0-1.24-1.69-.65-3.19.92-4.46,3.09-2.52,6.83-2.47,10.49-2.76.72-.06,1.67.34,2.01-.61.34-.94.2-2.19-.61-2.61-1.94-1.02-3.47-2.66-5.93-2.93-5.68-.63-10.67.74-15.36,3.91-1.58,1.06-3.52,1.41-4.5-.97-.85-2.07.21-3.47,2.02-4.29,1.51-.69,2.81-1.54,4.19-3.5ZM91.64,722.63c-2.11.45-4.86-1.01-6.61,1.25-2.43,3.14-3.83,6.85-3.75,10.84.16,7.06,2.33,13.38,7.05,18.85,1.97,2.29,4.23,2.77,6.62,1.88,4.11-1.53,8.39-2.64,12.23-4.91,4.25-2.51,8.38-5.16,12.24-8.22,1.07-.85,1.32-2.41,2.82-3.09,2.55-1.14,2.85-3.42.71-5.16-4.88-3.98-10.69-6.36-16.3-9-4.62-2.18-9.78-2.35-15.02-2.45Zm-16.44,34.36c1.14,0,2.29.02,3.43,0,3.26-.05,4.34-1.53,2.65-4.25-2.39-3.85-3.65-8.01-4.65-12.35-1.13-4.85-1.32-9.55,1.01-14.12.41-.8.45-1.7,0-2.48-.41-.72-1.13-.42-1.8-.29-9.45,1.75-18.4,4.63-25.95,10.92-1.37,1.14-3.06,1.9-4.64,2.78-1.5.83-2.18,2.11-1.24,3.54,1.61,2.45,3.18,5.08,5.33,7,7.31,6.54,16.14,9.23,25.85,9.25Zm403.08-56.76c.27-1.84-.06-3.82-1.07-5.6-2.26-3.94-4.44-7.94-7.05-11.64-1.01-1.44-2-3.05-3.8-4.08-2.97-1.7-5.45-.93-8.38,0-4.41,1.41-8.48,3.36-11.71,6.55-1.69,1.66-3.6,3-5.34,4.56-2.14,1.93-2.49,2.43.26,3.52,4.45,1.77,8.77,3.84,12.98,6.02,4.45,2.31,8.76,4.62,13.86,5.01.93.07,1.9.25,2.76.61,4.76,2.03,7.31.43,7.49-4.97Zm-120.97-543.17c-.57-3.47-.66-7.34-4.21-10.04-1.94-1.48-3.86-2.9-5.93-4.2-4.74-2.99-12.99-.56-16.58,1.53-3.83,2.24-4.99,6.16-6.5,9.85-.76,1.85,1.62,4.43,3.36,3.52,2.84-1.48,4.83-.2,6.95,1.26,2.69,1.86,5.38,3.7,7.96,5.73,1.05.83,1.87,1.35,1.66,2.85-.24,1.61-1.58,1.71-2.64,2.16-.56.23-1.47-.08-1.31,1,.13.88.77,1.22,1.61,1.34,1.19.18,2.19-.46,3.28-.67,6.97-1.31,11.61-8.12,12.35-14.33Zm-123.84,35.82c2.97.44,5.6-.24,8.26-.35,1.08-.04,1.92-.16,2.42-1.44.49-1.27-.13-2.05-.83-2.66-1.68-1.46-2.18-3.55-2.84-5.43-1.25-3.54-1.69-4.02-5.4-3.32-1.03.19-2.01.62-3.04.77-6.67.99-13.34,1.94-20.01,2.9-.83.12-1.8-.02-2.12,1.05-.36,1.2.81,1.32,1.37,1.87,2.75,2.71,6.5,4.03,9.9,4.69,4.11.81,8.19,2.71,12.3,1.91Zm28.99,1.93c8.12-.44,15.46-2.5,19.14-10.71,1.58-3.52,2.06-7.33.34-11.04-.82-1.77-3.3-2.44-4.88-1.43-1.34.85-3.33,5.9-2.97,7.51.74,3.31.11,4.28-3.13,4.34-2.29.04-3.88.91-4.6,3.09-.39,1.17-1.03,2.06-2.21,2.44-1.74.55-3.38,1.22-4.79,2.43-.66.56-2.34.21-2.1,1.42.2,1.03,1.55,1.64,2.65,1.93.8.21,1.71.04,2.57.04Z"/>
  <path class="cls-7" d="m200.96,265.83c0,2.66-.07,4.57.01,6.48.34,8.24,7.65,20.21,16.32,22.17,2.52.57,4.86.26,7.33-.02,6.81-.75,13.31-2.65,19.75-4.88,5.33-1.85,10.27-4.81,15.6-6.43,3.59-1.09,6.99-3.6,11.25-2.63,1.83.41,3.77-.9,5.62-1.43,1.67-.48,1.05-2.69.77-4.09-.27-1.33-1.3-1.82-2.87-1.46-2.28.53-4.59.92-7.02.33-1.47-.36-2.76-1.14-3.1-2.24-.99-3.19-2.76-6.23-2.39-9.79.18-1.7.04-3.44.12-5.16.04-.87-.39-2.05,1.07-2.25,1.27-.17,2.4.25,2.78,1.48.35,1.13.57,2.05,2.03,1.65.71-.2,1.55-.76,1.96.28.34.89.5,2.09-.28,2.71-1.91,1.52-.5,2.45.51,3.33.53.46.91.8,1.07,1.53.64,2.97,3.05,4.24,5.85,2.95,2.95-1.35,5.72-.55,8.74-.21,3.17.36,6.03,1.89,7.4,3.7,1.45,1.91,4.13,4,3.7,6.96-.37,2.55-2.24,4.25-4.44,5.63-4.23,2.65-9.01,3.34-13.76,4.28-4,.8-4.68,2.02-3.75,6.09.72,3.14.1,5.55-2.84,7.29-1.28.76-2.32,1.97-3.39,3.06-3.13,3.16-6.95,4.07-11.23,3.54-2.7-.33-4.68.5-6.23,2.97-2.72,4.35-7.46,5.26-12.02,6.23-6.22,1.32-11.74-1.1-17.09-3.73-1.7-.84-2.82-2.75-4.19-4.16-1.21-1.24-.05-2.32,1.48-2.31,1.43.01,2.62-.41,3.68-1.29,1.43-1.18,1.49-3.17-.08-4.08-2.3-1.34-4.72-2.6-7.45-.85-.38.24-.92.41-1.35.35-4.95-.7-9.69-2.18-12.77-6.32-1.52-2.04-3.47-3.61-4.94-5.74-2.85-4.12-3.98-8.69-4.97-13.34-.73-3.42-.9-6.97-1.18-10.47-.5-6.17,1.07-11.99,3.52-17.56,1.47-3.35,3.45-6.47,5.17-9.68,2.27-4.24,6.22-6.15,9.91-8.17,7.5-4.1,15.78-5.95,24.32-5.42,4.63.29,6.03-3.16,8.05-5.74,4.24-5.39,9.51-8.67,16.05-10.76,4.25-1.36,8.38-3.37,12.71-4.63,4.27-1.25,8.28-3.42,13-3.22,2.36.1,4.76-.83,7.18-1.16,5.26-.73,9.23,4.08,8.94,8.02-.26,3.69,1.17,7.1,1.41,10.73.23,3.69,7.12,5.84,10.55,3.63.72-.47,1.32-1.23,2.26-.63.67.42,1.14,1.15,1.07,1.92-.11,1.16-1.23,1.43-2.11,1.61-1.11.23-1.72.73-2.38,1.71-.81,1.21-2.08,2.28-3.38,2.98-6.99,3.8-14.22,6.76-22.46,5.82-1.37-.16-2.96-.21-1.47-2.01,1.57-1.91.93-3.55-.44-4.76-1.44-1.28-3.53-1.24-5.03-.02-5.76,4.69-12.2,6.3-19.51,5.14-2.43-.39-4.96-.11-7.44-.11-1.82,0-3.64.04-5.13-1.29-.2-.18-.53-.36-.77-.32-6.22.98-12.59-1.36-18.68.61-2.82.91-6,1.32-8.28,3.62-.12.12-.34.2-.52.22-6.2.78-7.86,6.56-11.31,10.33-5.17,5.65-5.26,12.68-4.93,19.02Z"/>
  <path class="cls-7" d="m324.7,232.35c-.95-.21-2.63-.22-4.34-.2-1.87.02-2.85-.38-2.69-3.15.21-3.6,1.42-4.25,4.55-4.05,3.87.25,6.87-2.73,10.67-3.19,3.6-.44,6.16-3.75,6.85-7.46.61-3.27,1.9-6.45,2.18-9.74.19-2.26,1.03-4.48.46-6.96-.26-1.15.64-3.09,1.1-4.54.49-1.56,2.13-.51,3.04.61,2.46,3.03,6.05,4.93,9.53,4.68,3.64-.25,7.58-.84,11.04-2.54,2.99-1.47,6.21-1.61,9.24-1.03,2.49.47,4.88,1.91,7.07,3.3,1.71,1.09,1.32,6.62.44,8.36-1.97,3.93-5.79,5.87-8.6,8.86-.47.5-.89,1.13-1.6,1.04-2.74-.35-4.61,1.32-6.52,2.79-1.69,1.3-3.73.39-5.52,1.11-1.19.47-2.58.23-3.79,1.05-.87.59-1.99.44-1.99-1,0-1.47-.54-2.36-2.02-2.64-1.55-.29-2.62.41-3.83,1.37-2.32,1.85-3.37,4.73-5.81,6.47-3.14,2.23-6.46,4-10.25,4.73-2.88.56-5.44,2.3-9.21,2.12Z"/>
  <path class="cls-7" d="m144.34,215.28c2.6.59,5.26.55,7.92.63,2.43.07,2.42,2.43,1.95,3.59-2,5-1.37,10.77-4.7,15.4-1.19,1.65-3.14,2.33-4.43.76-2.05-2.47-4.64-4.52-6.46-7.07-1.99-2.78-2.99-6.27-4.39-9.47-.08-.18.12-.68.23-.7,3.49-.44,6.15-3.48,9.89-3.15Z"/>
  <path class="cls-5" d="m211.15,274.91l5.82-.1c1.39-.02,2.74.45,3.81,1.33l4.58,3.77c1.2.99,3.02.14,3.02-1.42v-1.64c0-1.95,1.58-3.53,3.53-3.53h7.36s9.07,5.44,7.08,10.16-8.17,6.17-21.6,6.35c-9.52.13-13.93-7.4-15.7-11.8-.6-1.49.49-3.11,2.09-3.14Z"/>
  <path class="cls-8" d="m146.03,467.7c-3.5-3.21-5.88-7.64-10.98-9.18-22.72-16.51-37.36,15.28-50.75,28.93l24.23,9.27c-6.83,19.31-12.71,41.76-25.4,57.48-12.16,13.45-37.04,17.36-49.43,7.79-2.69,2.93-.54,8.19-3.6,11.36.67,18.05-11.03,42.7-.74,57.67,14.65,22.03,43.96,26.15,70.54,22.73,32.21-5.31,69.1-8.84,87.32-39.55,26.01-26.01-2.37-60.91-18.98-83.11,7.94-7.39,23.1,16.15,25.36,23.34,6.54,7.04,6.5,25.57,13.21,28.06,56.15.34,116.37-19.79,153.94-64.17,3.85-5.07,8.86-9.01,12.3-13.87,17.67-42.11,50.53,26.36,44.81-43.46-3.3-8.53-.3-20.9-7.26-27.62-1.96,11.31-5.98,29.37-20.26,31.18-4.26,1.52-22.4-5.53-20.19-9.27-1.52-1.44-3.16-3.55-4.81-4.65-22.82-24.32-37.13,5.77-56.12,16.85-8.44,7.93-19.62,4.36-30.04,3.64,1.07-1.94.84-3.19-1.67-3.08-9.97-7.09-17.02-20.28-31.2-20.49-8.63-2.2-26.09,3.86-25.36,11.87-.81,1.01-1.76.13-2.65.08-1.69,1.2-5.17,2.19-4.64,5.08-2.55.27-3.81,1.02-3.69,3.6-20.31,24.77-41.71,22.43-63.95-.48Z"/>
  <path class="cls-7" d="m108.53,496.73c-6.1,18.55-12.76,39.02-23.19,55.08-13.7,16.9-32.03,16.71-50.19,12.95-2.29-12.51,8.01-28.59,8.97-42.93,4.29-12.73,5.45-23.55,8.09-36.54-.09-10.77,14.65,17.41,30.81.46,3.84-.37,6.52-7.33,8.36-8.57,9.83-3.2,17.42,5.71,17.14,19.55Z"/>
  <path class="cls-8" d="m441.21,487.19c11.49,5.73,45.92,120.59,17.78,83.66-18.77-10.85-24.08-37.56-23.76-58.15-1.16-2.49,1.35-10,2.61-12.54,1.75-1.73,1.01-5.23,1.54-7.25,2.75-1.19,2-3.52,1.82-5.71Z"/>
</svg>