<?xml version="1.0" encoding="UTF-8"?>
<svg id="Layer_1" data-name="Layer 1" xmlns="http://www.w3.org/2000/svg" viewBox="0 0 307.77 307.77">
  <defs>
    <style>
      .cls-1 {
        fill: #ce3d41;
      }

      .cls-2 {
        fill: #fff;
        fill-rule: evenodd;
      }
    </style>
  </defs>
  <circle class="cls-1" cx="153.89" cy="153.89" r="153.89"/>
  <path class="cls-2" d="m197.99,215.23c3.2-11.72-3.02-35.81-3.02-35.81,0,0-4.51,19.63-11.56,26.88-6.01,6.19-13.38,10.48-23.95,11.61,8.64-4.2,14.58-12.95,14.58-23.06,0-14.2-11.71-25.71-26.15-25.71s-26.15,11.51-26.15,25.71c0,3.88.87,7.55,2.44,10.85-9.03-7.2-10.45-18.74-10.45-18.74,0,0-10.09,41.88,17.71,61.58,27.79,19.7,82.24,2.77,82.24,2.77,0,0-77.92,54.83-135.66-4.85-49.74-51.4-12.98-119.08-12.98-119.08,0,0-1.59,6.28-1.59,13.57s3.95,12.83,3.95,12.83c0,0,11.79-24.84,20.96-34.95,8.68-9.56,19.56-17.32,28.96-24.01,7.24-5.16,13.59-9.69,17.39-13.93,20.91-23.38,8.09-65.97,8.09-65.97,0,0,23.57,20.78,30.15,47.62,2.51,10.23.89,21.87-.55,32.28-2.34,16.9-4.24,30.55,12.69,29.67,27.35-1.43,3.58-43.59,3.58-43.59,0,0,62.03,32.6,57.4,89.63-4.63,57.02-67.81,69.99-67.81,69.99,0,0,16.52-13.56,19.72-25.28Z"/>
</svg>