<?xml version="1.0" encoding="UTF-8"?>
<svg id="Layer_1" data-name="Layer 1" xmlns="http://www.w3.org/2000/svg" viewBox="0 0 307.77 307.77">
  <defs>
    <style>
      .cls-1 {
        fill: #86bb50;
      }

      .cls-2 {
        fill: #fff;
        fill-rule: evenodd;
      }
    </style>
  </defs>
  <circle class="cls-1" cx="153.89" cy="153.89" r="153.89"/>
  <path class="cls-2" d="m78.81,234.76c-.72-.68-1.44-1.37-2.14-2.08-37.25-37.25-37.25-97.65,0-134.91,37.25-37.25,155.96-39.75,155.96-39.75,0,0,16.2,137.4-21.05,174.65-33.09,33.09-84.43,36.79-121.6,11.1l29.95-36.76,47.88-10.34-39.08-3.91,24.84-25.29,28.27-6.19-22.36-6.62,22.36-40.33-31.8,35.67-12.28-17.33,4.32,28.61-22.15,24.97-10.27-31.59v42.01l-30.85,38.07Z"/>
</svg>