<?xml version="1.0" encoding="UTF-8"?>
<svg id="Layer_1" data-name="Layer 1" xmlns="http://www.w3.org/2000/svg" viewBox="0 0 307.77 307.77">
  <defs>
    <style>
      .cls-1 {
        fill: #8765a7;
      }

      .cls-2 {
        fill: #fff;
        fill-rule: evenodd;
      }
    </style>
  </defs>
  <circle class="cls-1" cx="153.89" cy="153.89" r="153.89"/>
  <path class="cls-2" d="m230.83,225.6s-27.07,21.71-80.95,12.73c-40.87-6.82-62.68-51.88-62.68-76.1,0-57.42,42.5-70.49,71.23-70.49s47.48,28.01,47.48,49.7-15.34,40.66-39.21,40.66-30.94-16.76-30.94-32.17,12.47-20.84,23.84-20.84,15.26,9.71,15.26,18.05-6.47,11.33-11.87,11.33-5.93-2.72-8-5.59c-2.07-2.86,2.64-13.7-5.11-13.7s-9.18,12.46-9.18,12.46c0,0,2.82,24.04,26.01,23.63,23.18-.42,34.18-18.34,30.99-36.08-3.2-17.75-20.42-36.6-50.64-32.79-30.22,3.81-42.57,34.35-37.13,66.99,5.44,32.64,44.54,51.55,75.28,44.74,30.74-6.8,61.36-29.06,61.36-85.48s-48.87-90.34-107.14-84.75c-58.27,5.59-94.44,56.53-92.13,117.75,2.32,61.21,60.4,94.55,109.51,96.27,49.11,1.72,79.22-26.71,79.22-26.71,0,0,6.77-6.04,4.12-10.75-2.65-4.72-9.31,1.16-9.31,1.16Z"/>
</svg>